<svg id="Layer_1" data-name="Layer 1" xmlns="http://www.w3.org/2000/svg" viewBox="0 0 28.1 25.08"><defs><style>.cls-1,.cls-2,.cls-3{fill:#f4e9f3;}.cls-2,.cls-3{font-size:6.79px;font-family:Arial-BoldMT, Arial;font-weight:700;}.cls-3{letter-spacing:-0.02em;}</style></defs><title>colors_icon_ver1</title><path class="cls-1" d="M-1811.43,1197.92v11H-1824v-11h12.57m.93-1H-1824a1,1,0,0,0-1,1v12h13.57a1,1,0,0,0,1-1V1197a.07.07,0,0,0-.07-.07Z" transform="translate(1825 -1196.92)"/><path class="cls-1" d="M-1811.43,1209.93V1221H-1824v-11.07h12.57m0-1H-1825V1221a1,1,0,0,0,1,1h13.49a.07.07,0,0,0,.07-.07v-12a1,1,0,0,0-1-1Z" transform="translate(1825 -1196.92)"/><path class="cls-1" d="M-1797.89,1197.92v11h-12.53v-11h12.53m0-1h-13.53v12a1,1,0,0,0,1,1h13.49a0,0,0,0,0,0,0v-12a1,1,0,0,0-1-1Z" transform="translate(1825 -1196.92)"/><path class="cls-1" d="M-1797.89,1209.93V1221h-12.53v-11.07h12.53m1-1h-13.53a1,1,0,0,0-1,1V1222h13.53a1,1,0,0,0,1-1v-12.07Z" transform="translate(1825 -1196.92)"/><text class="cls-2" transform="translate(4.98 8.85)">C</text><text class="cls-2" transform="translate(18.11 8.83)">M</text><text class="cls-3" transform="translate(4.98 21.25)">Y</text><text class="cls-2" transform="translate(18.58 21.25)">K</text></svg>