<svg id="Layer_1" data-name="Layer 1" xmlns="http://www.w3.org/2000/svg" viewBox="0 0 28.1 25.02"><defs><style>.cls-1{fill:#f6ebf4;}</style></defs><title>cutting_icon_ver1</title><path class="cls-1" d="M-1798.95,1199.32h-4a.5.5,0,0,0-.5.5.5.5,0,0,0,.5.5h4.07a.5.5,0,0,0,.5-.43.5.5,0,0,0-.24-.5h-.07a.5.5,0,0,0-.25-.07Zm-8,0h-4a.5.5,0,0,0-.5.5.5.5,0,0,0,.5.5h4a.5.5,0,0,0,.5-.5.5.5,0,0,0-.5-.5Zm-8,0h-4a.5.5,0,0,0-.5.5.5.5,0,0,0,.5.5h4a.5.5,0,0,0,.5-.5.5.5,0,0,0-.5-.5Zm-8,0h-2.1c-1,1-1,1.32-1,1.32a.5.5,0,0,0,.5.5.5.5,0,0,0,.5-.5v-.32h2.1a.5.5,0,0,0,.5-.5.5.5,0,0,0-.5-.5Zm-2.6,4.82a.5.5,0,0,0-.5.5v4a.5.5,0,0,0,.5.5.5.5,0,0,0,.5-.5v-4a.5.5,0,0,0-.5-.5Zm0,8a.5.5,0,0,0-.5.5v4a.5.5,0,0,0,.5.5.5.5,0,0,0,.5-.5v-4a.5.5,0,0,0-.5-.5Zm0,8a.5.5,0,0,0-.5.5v2.7a.5.5,0,0,0,.5.5.5.5,0,0,0,.5-.5v-2.7a.5.5,0,0,0-.5-.5Zm8.23,3.2h-4a.5.5,0,0,0-.5.5.5.5,0,0,0,.5.5h4a.5.5,0,0,0,.5-.5.5.5,0,0,0-.5-.5Zm8,0h-4a.5.5,0,0,0-.5.5.5.5,0,0,0,.5.5h4a.5.5,0,0,0,.5-.5.5.5,0,0,0-.5-.5Zm8,0h-4a.5.5,0,0,0-.5.5.5.5,0,0,0,.5.5h4a.5.5,0,0,0,.5-.5.5.5,0,0,0-.5-.5Zm2.87-4.56a.5.5,0,0,0-.5.5v4a.5.5,0,0,0,.5.5.5.5,0,0,0,.5-.5v-4a.5.5,0,0,0-.5-.5Zm0-8a.5.5,0,0,0-.5.5v4a.5.5,0,0,0,.5.5.5.5,0,0,0,.5-.5v-4a.5.5,0,0,0-.5-.5Zm0-8a.5.5,0,0,0-.5.5v4a.5.5,0,0,0,.5.5.5.5,0,0,0,.5-.5v-4a.5.5,0,0,0-.5-.5Zm-.36-3.45a.5.5,0,0,1,.19.06.5.5,0,0,1,.19.07l-.05,0h0l-.17-.06h0l-.11,0Z" transform="translate(1826.05 -1199.32)"/></svg>