<svg id="Layer_1" data-name="Layer 1" xmlns="http://www.w3.org/2000/svg" viewBox="0 0 28.19 25.16"><defs><style>.cls-1{fill:none;stroke:#f6ebf4;stroke-linecap:round;stroke-miterlimit:10;}</style></defs><title>cuttingInv_icon_ver1</title><line class="cls-1" x1="0.5" y1="21.64" x2="11.5" y2="21.64"/><line class="cls-1" x1="16.69" y1="21.64" x2="27.69" y2="21.64"/><line class="cls-1" x1="0.5" y1="24.66" x2="11.5" y2="24.66"/><line class="cls-1" x1="16.69" y1="24.66" x2="27.69" y2="24.66"/><line class="cls-1" x1="0.5" y1="18.62" x2="11.5" y2="18.62"/><line class="cls-1" x1="16.69" y1="18.62" x2="27.69" y2="18.62"/><line class="cls-1" x1="0.5" y1="6.54" x2="11.5" y2="6.54"/><line class="cls-1" x1="16.69" y1="6.54" x2="27.69" y2="6.54"/><line class="cls-1" x1="0.5" y1="3.52" x2="11.5" y2="3.52"/><line class="cls-1" x1="16.69" y1="3.52" x2="27.69" y2="3.52"/><line class="cls-1" x1="0.5" y1="0.5" x2="11.5" y2="0.5"/><line class="cls-1" x1="16.69" y1="0.5" x2="27.69" y2="0.5"/><line class="cls-1" x1="0.5" y1="15.6" x2="11.5" y2="15.6"/><line class="cls-1" x1="16.69" y1="15.6" x2="27.69" y2="15.6"/><line class="cls-1" x1="0.5" y1="12.58" x2="11.5" y2="12.58"/><line class="cls-1" x1="16.69" y1="12.58" x2="27.69" y2="12.58"/><line class="cls-1" x1="0.5" y1="9.56" x2="11.5" y2="9.56"/><line class="cls-1" x1="16.69" y1="9.56" x2="27.69" y2="9.56"/></svg>