<svg id="Layer_1" data-name="Layer 1" xmlns="http://www.w3.org/2000/svg" viewBox="0 0 28.19 25.02"><defs><style>.cls-1{fill:#f6ebf4;}.cls-2{fill:#f4e9f3;}</style></defs><title>digitalPrinting_icon_ver1</title><path class="cls-1" d="M-1796.47,1209.93h-27.19a.5.5,0,0,1-.5-.5.5.5,0,0,1,.5-.5h27.19a.5.5,0,0,1,.5.5A.5.5,0,0,1-1796.47,1209.93Z" transform="translate(1824.15 -1196.92)"/><path class="cls-2" d="M-1810,1211.58a4.68,4.68,0,0,1,4.68,4.68,4.68,4.68,0,0,1-4.68,4.68,4.68,4.68,0,0,1-4.68-4.68,4.68,4.68,0,0,1,4.68-4.68m0-1a5.68,5.68,0,0,0-5.68,5.68,5.68,5.68,0,0,0,5.68,5.68,5.68,5.68,0,0,0,5.68-5.68,5.68,5.68,0,0,0-5.68-5.68Z" transform="translate(1824.15 -1196.92)"/><path class="cls-2" d="M-1810,1197.92a4.68,4.68,0,0,1,4.68,4.68,4.68,4.68,0,0,1-4.68,4.68,4.68,4.68,0,0,1-4.68-4.68,4.68,4.68,0,0,1,4.68-4.68m0-1a5.68,5.68,0,0,0-5.68,5.68,5.68,5.68,0,0,0,5.68,5.68,5.68,5.68,0,0,0,5.68-5.68,5.68,5.68,0,0,0-5.68-5.68Z" transform="translate(1824.15 -1196.92)"/><circle class="cls-2" cx="14.2" cy="5.68" r="1.63"/><circle class="cls-2" cx="14.2" cy="19.34" r="1.63"/></svg>