<svg id="Layer_1" data-name="Layer 1" xmlns="http://www.w3.org/2000/svg" viewBox="0 0 28.1 25.52"><defs><style>.cls-1{fill:#f6ebf4;}</style></defs><title>equipment_icon_ver1</title><path class="cls-1" d="M-1806,1223.85h-11a.5.5,0,0,1-.5-.5.5.5,0,0,1,.5-.5h11a.5.5,0,0,1,.5.5A.5.5,0,0,1-1806,1223.85Z" transform="translate(1825.68 -1198.32)"/><path class="cls-1" d="M-1811.53,1223.85a.5.5,0,0,1-.5-.5v-6.18a.5.5,0,0,1,.5-.5.5.5,0,0,1,.5.5v6.18A.5.5,0,0,1-1811.53,1223.85Z" transform="translate(1825.68 -1198.32)"/><path class="cls-1" d="M-1798.57,1199.32v17.34h-26.1v-17.34h26.1m0-1h-26.1a1,1,0,0,0-1,1v17.34a1,1,0,0,0,1,1h26.1a1,1,0,0,0,1-1v-17.34a1,1,0,0,0-1-1Z" transform="translate(1825.68 -1198.32)"/></svg>