<svg id="Layer_1" data-name="Layer 1" xmlns="http://www.w3.org/2000/svg" viewBox="0 0 29.1 25.26"><defs><style>.cls-1{fill:#f6ebf4;}</style></defs><title>folding_icon_ver1</title><path class="cls-1" d="M-1801.81,1223.85h-21.11a.5.5,0,0,1-.47-.32l-3.48-8.87a.5.5,0,0,1,.05-.46.5.5,0,0,1,.41-.22h28.1a.5.5,0,0,1,.41.22.5.5,0,0,1,.05.47l-3.52,8.87A.5.5,0,0,1-1801.81,1223.85Zm-20.77-1h20.43l3.12-7.87h-26.63Z" transform="translate(1826.9 -1198.58)"/><path class="cls-1" d="M-1822.92,1223.85a.5.5,0,0,1-.39-.18.5.5,0,0,1,.07-.7l10.67-8.87a.5.5,0,0,1,.64,0l10.44,8.87a.5.5,0,0,1,.06.7.5.5,0,0,1-.7.06l-10.12-8.59-10.35,8.6A.5.5,0,0,1-1822.92,1223.85Z" transform="translate(1826.9 -1198.58)"/><path class="cls-1" d="M-1812.25,1215h-9a.5.5,0,0,1-.43-.25.5.5,0,0,1,0-.5l9-15.4a.5.5,0,0,1,.56-.23.5.5,0,0,1,.37.48v15.4A.5.5,0,0,1-1812.25,1215Zm-8.13-1h7.63v-13Z" transform="translate(1826.9 -1198.58)"/><path class="cls-1" d="M-1803.25,1215h-9a.5.5,0,0,1-.5-.5v-15.4a.5.5,0,0,1,.37-.48.5.5,0,0,1,.56.23l9,15.4a.5.5,0,0,1,0,.5A.5.5,0,0,1-1803.25,1215Zm-8.5-1h7.63l-7.63-13Z" transform="translate(1826.9 -1198.58)"/></svg>