<svg id="Layer_1" data-name="Layer 1" xmlns="http://www.w3.org/2000/svg" viewBox="0 0 28.19 24.78"><defs><style>.cls-1{fill:#f6ebf4;}</style></defs><title>papers_icon_ver1</title><path class="cls-1" d="M-1801.17,1213.73h-27.19a.5.5,0,0,1-.5-.5.5.5,0,0,1,.5-.5h27.19a.5.5,0,0,1,.5.5A.5.5,0,0,1-1801.17,1213.73Z" transform="translate(1828.86 -1188.95)"/><path class="cls-1" d="M-1801.17,1209h-27.19a.5.5,0,0,1-.5-.5.5.5,0,0,1,.5-.5h27.19a.5.5,0,0,1,.5.5A.5.5,0,0,1-1801.17,1209Z" transform="translate(1828.86 -1188.95)"/><path class="cls-1" d="M-1801.17,1204.2h-27.19a.5.5,0,0,1-.5-.5.5.5,0,0,1,.5-.5h27.19a.5.5,0,0,1,.5.5A.5.5,0,0,1-1801.17,1204.2Z" transform="translate(1828.86 -1188.95)"/><path class="cls-1" d="M-1801.17,1199.43h-27.19a.5.5,0,0,1-.5-.5.5.5,0,0,1,.5-.5h27.19a.5.5,0,0,1,.5.5A.5.5,0,0,1-1801.17,1199.43Z" transform="translate(1828.86 -1188.95)"/><path class="cls-1" d="M-1801.17,1194.67h-27.19a.5.5,0,0,1-.5-.5.5.5,0,0,1,.5-.5h27.19a.5.5,0,0,1,.5.5A.5.5,0,0,1-1801.17,1194.67Z" transform="translate(1828.86 -1188.95)"/><path class="cls-1" d="M-1801.17,1194.67h-27.19a.5.5,0,0,1-.5-.5.5.5,0,0,1,.5-.5h27.19a.5.5,0,0,1,.5.5A.5.5,0,0,1-1801.17,1194.67Z" transform="translate(1828.86 -1188.95)"/><path class="cls-1" d="M-1801.17,1190h-27.19a.5.5,0,0,1-.5-.5.5.5,0,0,1,.5-.5h27.19a.5.5,0,0,1,.5.5A.5.5,0,0,1-1801.17,1190Z" transform="translate(1828.86 -1188.95)"/></svg>