<svg id="Layer_1" data-name="Layer 1" xmlns="http://www.w3.org/2000/svg" viewBox="0 0 28.1 25.02"><defs><style>.cls-1{fill:#f6ebf4;}</style></defs><title>preparation_icon_ver1</title><path class="cls-1" d="M-1798.89,1200.45v2.92h-22.19a1,1,0,0,0-1,1v19.1H-1825v-23h26.1m0-1H-1825a1,1,0,0,0-1,1v23a1,1,0,0,0,1,1h2.92a1,1,0,0,0,1-1v-19.1h22.19a1,1,0,0,0,1-1v-2.92a1,1,0,0,0-1-1Z" transform="translate(1826 -1199.45)"/><path class="cls-1" d="M-1824,1204.35h-1.19a.5.5,0,0,1-.5-.5.5.5,0,0,1,.5-.5h1.19a.5.5,0,0,1,.5.5A.5.5,0,0,1-1824,1204.35Z" transform="translate(1826 -1199.45)"/><rect class="cls-1" x="17.65" y="15.34" width="10.46" height="9.68" rx="1" ry="1"/><path class="cls-1" d="M-1824,1207.25h-1.19a.5.5,0,0,1-.5-.5.5.5,0,0,1,.5-.5h1.19a.5.5,0,0,1,.5.5A.5.5,0,0,1-1824,1207.25Z" transform="translate(1826 -1199.45)"/><path class="cls-1" d="M-1824,1210.15h-1.19a.5.5,0,0,1-.5-.5.5.5,0,0,1,.5-.5h1.19a.5.5,0,0,1,.5.5A.5.5,0,0,1-1824,1210.15Z" transform="translate(1826 -1199.45)"/><path class="cls-1" d="M-1824,1213.06h-1.19a.5.5,0,0,1-.5-.5.5.5,0,0,1,.5-.5h1.19a.5.5,0,0,1,.5.5A.5.5,0,0,1-1824,1213.06Z" transform="translate(1826 -1199.45)"/><path class="cls-1" d="M-1824,1216h-1.19a.5.5,0,0,1-.5-.5.5.5,0,0,1,.5-.5h1.19a.5.5,0,0,1,.5.5A.5.5,0,0,1-1824,1216Z" transform="translate(1826 -1199.45)"/><path class="cls-1" d="M-1824,1218.86h-1.19a.5.5,0,0,1-.5-.5.5.5,0,0,1,.5-.5h1.19a.5.5,0,0,1,.5.5A.5.5,0,0,1-1824,1218.86Z" transform="translate(1826 -1199.45)"/><path class="cls-1" d="M-1824,1221.77h-1.19a.5.5,0,0,1-.5-.5.5.5,0,0,1,.5-.5h1.19a.5.5,0,0,1,.5.5A.5.5,0,0,1-1824,1221.77Z" transform="translate(1826 -1199.45)"/><path class="cls-1" d="M-1804.23,1201.76a.5.5,0,0,1-.5-.5v-1.19a.5.5,0,0,1,.5-.5.5.5,0,0,1,.5.5v1.19A.5.5,0,0,1-1804.23,1201.76Z" transform="translate(1826 -1199.45)"/><path class="cls-1" d="M-1807.13,1201.76a.5.5,0,0,1-.5-.5v-1.19a.5.5,0,0,1,.5-.5.5.5,0,0,1,.5.5v1.19A.5.5,0,0,1-1807.13,1201.76Z" transform="translate(1826 -1199.45)"/><path class="cls-1" d="M-1801.33,1201.76a.5.5,0,0,1-.5-.5v-1.19a.5.5,0,0,1,.5-.5.5.5,0,0,1,.5.5v1.19A.5.5,0,0,1-1801.33,1201.76Z" transform="translate(1826 -1199.45)"/><path class="cls-1" d="M-1810,1201.76a.5.5,0,0,1-.5-.5v-1.19a.5.5,0,0,1,.5-.5.5.5,0,0,1,.5.5v1.19A.5.5,0,0,1-1810,1201.76Z" transform="translate(1826 -1199.45)"/><path class="cls-1" d="M-1812.94,1201.76a.5.5,0,0,1-.5-.5v-1.19a.5.5,0,0,1,.5-.5.5.5,0,0,1,.5.5v1.19A.5.5,0,0,1-1812.94,1201.76Z" transform="translate(1826 -1199.45)"/><path class="cls-1" d="M-1815.84,1201.76a.5.5,0,0,1-.5-.5v-1.19a.5.5,0,0,1,.5-.5.5.5,0,0,1,.5.5v1.19A.5.5,0,0,1-1815.84,1201.76Z" transform="translate(1826 -1199.45)"/><path class="cls-1" d="M-1818.74,1201.76a.5.5,0,0,1-.5-.5v-1.19a.5.5,0,0,1,.5-.5.5.5,0,0,1,.5.5v1.19A.5.5,0,0,1-1818.74,1201.76Z" transform="translate(1826 -1199.45)"/><path class="cls-1" d="M-1821.65,1201.76a.5.5,0,0,1-.5-.5v-1.19a.5.5,0,0,1,.5-.5.5.5,0,0,1,.5.5v1.19A.5.5,0,0,1-1821.65,1201.76Z" transform="translate(1826 -1199.45)"/></svg>