<svg id="Layer_1" data-name="Layer 1" xmlns="http://www.w3.org/2000/svg" viewBox="0 0 28.1 25.02"><defs><style>.cls-1{fill:#f6ebf4;}</style></defs><title>printers_icon_ver1</title><path class="cls-1" d="M-1803.52,1214.57h-13.41a.5.5,0,0,1-.5-.5.5.5,0,0,1,.5-.5h13.41a.5.5,0,0,1,.5.5A.5.5,0,0,1-1803.52,1214.57Z" transform="translate(1824.54 -1196.92)"/><path class="cls-1" d="M-1803.52,1211.32h-13.41a.5.5,0,0,1-.5-.5.5.5,0,0,1,.5-.5h13.41a.5.5,0,0,1,.5.5A.5.5,0,0,1-1803.52,1211.32Z" transform="translate(1824.54 -1196.92)"/><path class="cls-1" d="M-1803.59,1217.82H-1817a.5.5,0,0,1-.5-.5.5.5,0,0,1,.5-.5h13.41a.5.5,0,0,1,.5.5A.5.5,0,0,1-1803.59,1217.82Z" transform="translate(1824.54 -1196.92)"/><path class="cls-1" d="M-1802.14,1197.92v3.83h-16.31v-3.83h16.31m0-1h-16.31a1,1,0,0,0-1,1v3.83a1,1,0,0,0,1,1h16.31a1,1,0,0,0,1-1v-3.83a1,1,0,0,0-1-1Z" transform="translate(1824.54 -1196.92)"/><path class="cls-1" d="M-1802.14,1208.24v12.7h-16.31v-12.7h16.31m0-1h-16.31a1,1,0,0,0-1,1v12.7a1,1,0,0,0,1,1h16.31a1,1,0,0,0,1-1v-12.7a1,1,0,0,0-1-1Z" transform="translate(1824.54 -1196.92)"/><path class="cls-1" d="M-1798.4,1201.76h-24.17a2.18,2.18,0,0,0-2,2.34v8.15a2.18,2.18,0,0,0,2,2.34h2.42v-1.17h-2.42a1.09,1.09,0,0,1-1-1.17v-8.15a1.09,1.09,0,0,1,1-1.17h24.17a1.09,1.09,0,0,1,1,1.17v8.15a1.09,1.09,0,0,1-1,1.17h-2.5v1.17h2.5a2.18,2.18,0,0,0,2-2.34v-8.15A2.18,2.18,0,0,0-1798.4,1201.76Z" transform="translate(1824.54 -1196.92)"/></svg>