<svg id="Layer_1" data-name="Layer 1" xmlns="http://www.w3.org/2000/svg" viewBox="0 0 27.31 23.21"><defs><style>.cls-1{fill:#f4e9f3;}</style></defs><title>raster_icon_ver1</title><circle class="cls-1" cx="9.49" cy="1.17" r="1.17"/><circle class="cls-1" cx="5.34" cy="1.17" r="1.17"/><circle class="cls-1" cx="1.17" cy="1.17" r="1.17"/><circle class="cls-1" cx="13.66" cy="1.17" r="1.17"/><circle class="cls-1" cx="17.82" cy="1.17" r="1.17"/><circle class="cls-1" cx="21.98" cy="1.17" r="1.17"/><circle class="cls-1" cx="26.14" cy="1.17" r="1.17"/><circle class="cls-1" cx="9.49" cy="5.34" r="1.17"/><circle class="cls-1" cx="5.34" cy="5.34" r="1.17"/><circle class="cls-1" cx="1.17" cy="5.34" r="1.17"/><circle class="cls-1" cx="13.66" cy="5.34" r="1.17"/><circle class="cls-1" cx="17.82" cy="5.34" r="1.17"/><circle class="cls-1" cx="21.98" cy="5.34" r="1.17"/><circle class="cls-1" cx="26.14" cy="5.34" r="1.17"/><circle class="cls-1" cx="9.49" cy="9.52" r="1.17"/><circle class="cls-1" cx="5.34" cy="9.52" r="1.17"/><circle class="cls-1" cx="1.17" cy="9.52" r="1.17"/><circle class="cls-1" cx="13.66" cy="9.52" r="1.17"/><circle class="cls-1" cx="17.82" cy="9.52" r="1.17"/><circle class="cls-1" cx="21.98" cy="9.52" r="1.17"/><circle class="cls-1" cx="26.14" cy="9.52" r="1.17"/><circle class="cls-1" cx="9.49" cy="13.69" r="1.17"/><circle class="cls-1" cx="5.34" cy="13.69" r="1.17"/><circle class="cls-1" cx="1.17" cy="13.69" r="1.17"/><circle class="cls-1" cx="13.66" cy="13.69" r="1.17"/><circle class="cls-1" cx="17.82" cy="13.69" r="1.17"/><circle class="cls-1" cx="21.98" cy="13.69" r="1.17"/><circle class="cls-1" cx="26.14" cy="13.69" r="1.17"/><circle class="cls-1" cx="9.49" cy="17.87" r="1.17"/><circle class="cls-1" cx="5.34" cy="17.87" r="1.17"/><circle class="cls-1" cx="1.17" cy="17.87" r="1.17"/><circle class="cls-1" cx="13.66" cy="17.87" r="1.17"/><circle class="cls-1" cx="17.82" cy="17.87" r="1.17"/><circle class="cls-1" cx="21.98" cy="17.87" r="1.17"/><circle class="cls-1" cx="26.14" cy="17.87" r="1.17"/><circle class="cls-1" cx="9.49" cy="22.04" r="1.17"/><circle class="cls-1" cx="5.34" cy="22.04" r="1.17"/><circle class="cls-1" cx="1.17" cy="22.04" r="1.17"/><circle class="cls-1" cx="13.66" cy="22.04" r="1.17"/><circle class="cls-1" cx="17.82" cy="22.04" r="1.17"/><circle class="cls-1" cx="21.98" cy="22.04" r="1.17"/><circle class="cls-1" cx="26.14" cy="22.04" r="1.17"/></svg>