<svg id="Layer_1" data-name="Layer 1" xmlns="http://www.w3.org/2000/svg" viewBox="0 0 28.1 25.02"><defs><style>.cls-1{fill:#f6ebf4;}.cls-2{fill:none;stroke:#f6ebf4;stroke-linecap:round;stroke-linejoin:round;}</style></defs><title>screenPrintingViscosity_icon_ver1</title><path class="cls-1" d="M-140.73,315.32V318h-26.1v-2.68h26.1m0-1h-26.1a1,1,0,0,0-1,1V318a1,1,0,0,0,1,1h26.1a1,1,0,0,0,1-1v-2.68a1,1,0,0,0-1-1Z" transform="translate(167.83 -314.32)"/><path class="cls-1" d="M-142.75,319v19.31h-22V319h22m0-1h-22a1,1,0,0,0-1,1v19.31a1,1,0,0,0,1,1h22a1,1,0,0,0,1-1V319a1,1,0,0,0-1-1Z" transform="translate(167.83 -314.32)"/><line class="cls-2" x1="6.35" y1="4.68" x2="6.35" y2="17.54"/><line class="cls-2" x1="10.58" y1="4.68" x2="10.58" y2="13.47"/><line class="cls-2" x1="21.33" y1="4.68" x2="21.33" y2="10.07"/></svg>