<svg id="Layer_1" data-name="Layer 1" xmlns="http://www.w3.org/2000/svg" viewBox="0 0 28.1 25.02"><defs><style>.cls-1{fill:#f6ebf4;}.cls-2{fill:none;stroke:#f6ebf4;stroke-linecap:round;stroke-linejoin:round;}</style></defs><title>screen-printing_icon_ver1</title><path class="cls-1" d="M-140.4,315.33v23h-26.1v-23h26.1m0-1h-26.1a1,1,0,0,0-1,1v23a1,1,0,0,0,1,1h26.1a1,1,0,0,0,1-1v-23a1,1,0,0,0-1-1Z" transform="translate(167.5 -314.33)"/><path class="cls-1" d="M-142.75,317.43v18.83h-21.39V317.43h21.39m0-1h-21.39a1,1,0,0,0-1,1v18.83a1,1,0,0,0,1,1h21.39a1,1,0,0,0,1-1V317.43a1,1,0,0,0-1-1Z" transform="translate(167.5 -314.33)"/><line class="cls-2" x1="2.95" y1="6.84" x2="7.21" y2="2.58"/><line class="cls-2" x1="3.21" y1="10.79" x2="10.94" y2="3.06"/><line class="cls-2" x1="3.28" y1="14.93" x2="15.35" y2="2.87"/><line class="cls-2" x1="3.23" y1="19.19" x2="19.51" y2="2.91"/><line class="cls-2" x1="4.23" y1="22.41" x2="23.78" y2="2.86"/><line class="cls-2" x1="8.63" y1="22.22" x2="25.19" y2="5.65"/><line class="cls-2" x1="12.61" y1="22.45" x2="24.99" y2="10.07"/><line class="cls-2" x1="16.83" y1="22.44" x2="25.2" y2="14.07"/><line class="cls-2" x1="21.34" y1="22.14" x2="24.95" y2="18.53"/></svg>