<svg id="Layer_1" data-name="Layer 1" xmlns="http://www.w3.org/2000/svg" viewBox="0 0 28.14 25.02"><defs><style>.cls-1{fill:#f6ebf4;}.cls-2{fill:none;stroke:#f6ebf4;stroke-linecap:round;stroke-linejoin:round;}</style></defs><title>screenPrintingColors_icon_ver1</title><path class="cls-1" d="M-143.56,319.36l-3.65-3.65a1,1,0,0,0-.71-.29,1,1,0,0,0-.71.29l-12.56,12.56v1.41l13.27-13.27h0l3.65,3.65L-157.18,333h1.41l12.2-12.2A1,1,0,0,0-143.56,319.36Z" transform="translate(167.83 -314.33)"/><path class="cls-1" d="M-140.69,332.19h-20.7v1h20.7v5.17h-20.7v.88l-.09.12h20.79a1,1,0,0,0,1-1v-5.17A1,1,0,0,0-140.69,332.19Z" transform="translate(167.83 -314.33)"/><path class="cls-1" d="M-161.67,315.33v23h-5.17v-23h5.17m0-1h-5.17a1,1,0,0,0-1,1v23a1,1,0,0,0,1,1h5.17a1,1,0,0,0,1-1v-23a1,1,0,0,0-1-1Z" transform="translate(167.83 -314.33)"/><circle class="cls-1" cx="3.58" cy="21.44" r="1.2"/><line class="cls-2" x1="6.4" y1="4.9" x2="0.67" y2="4.9"/><line class="cls-2" x1="6.4" y1="9.07" x2="0.67" y2="9.07"/><line class="cls-2" x1="6.4" y1="13.24" x2="0.67" y2="13.24"/><line class="cls-2" x1="0.67" y1="17.41" x2="6.65" y2="17.41"/><line class="cls-2" x1="10.58" y1="18.7" x2="10.58" y2="24.43"/><line class="cls-2" x1="14.75" y1="18.7" x2="14.75" y2="24.43"/><line class="cls-2" x1="18.92" y1="18.7" x2="18.92" y2="24.43"/><line class="cls-2" x1="23.09" y1="24.43" x2="23.09" y2="18.45"/><line class="cls-2" x1="20.78" y1="8.85" x2="16.73" y2="4.8"/><line class="cls-2" x1="17.83" y1="11.8" x2="13.78" y2="7.75"/><line class="cls-2" x1="14.89" y1="14.75" x2="10.84" y2="10.69"/><line class="cls-2" x1="7.89" y1="13.64" x2="12.12" y2="17.87"/></svg>