<svg id="Layer_1" data-name="Layer 1" xmlns="http://www.w3.org/2000/svg" viewBox="0 0 15.15 15.15"><defs><style>.cls-1{fill:#f2747f;}.cls-2{fill:#fff;}</style></defs><title>help_icon_ver1</title><circle class="cls-1" cx="-771.84" cy="1365.74" r="7.58" transform="translate(50.16 -1560.6) rotate(-27.92)"/><path class="cls-2" d="M-768.45,1363.56a2.18,2.18,0,0,1-.39,1.32,3.33,3.33,0,0,1-1.23,1,3.23,3.23,0,0,0-.92.61,1.28,1.28,0,0,0-.28.47,1.89,1.89,0,0,0-.06.5v.43h-1.77v-.6a2.18,2.18,0,0,1,.81-1.92,6.44,6.44,0,0,1,.84-.49,2.61,2.61,0,0,0,.8-.58,1.12,1.12,0,0,0,.25-.75,1,1,0,0,0-.37-.76,1.72,1.72,0,0,0-1.11-.31,1.74,1.74,0,0,0-1.15.35,1.34,1.34,0,0,0-.48.92h-1.84a2.89,2.89,0,0,1,1-2.09,3.6,3.6,0,0,1,2.48-.79,3.83,3.83,0,0,1,2.53.78A2.42,2.42,0,0,1-768.45,1363.56Zm-4.6,5.39a1.21,1.21,0,0,1,.88-.33,1.29,1.29,0,0,1,.91.33,1.09,1.09,0,0,1,.36.84,1.11,1.11,0,0,1-.36.85,1.27,1.27,0,0,1-.91.34,1.19,1.19,0,0,1-.88-.34,1.15,1.15,0,0,1-.34-.85A1.12,1.12,0,0,1-773.05,1368.95Z" transform="translate(779.42 -1358.16)"/></svg>