<svg id="Layer_1" data-name="Layer 1" xmlns="http://www.w3.org/2000/svg" viewBox="0 0 27.35 27.35"><defs><style>.cls-1{fill:#6d5faa;}</style></defs><title>logo_ver1</title><path class="cls-1" d="M-197.75,1898.5a10.34,10.34,0,0,1-9,5.33,10.35,10.35,0,0,1-10.33-10.33,10.35,10.35,0,0,1,10.33-10.33,10.33,10.33,0,0,1,9,5.23h3.71a13.69,13.69,0,0,0-12.68-8.58,13.69,13.69,0,0,0-13.68,13.68,13.69,13.69,0,0,0,13.68,13.68,13.69,13.69,0,0,0,12.72-8.67Z" transform="translate(220.46 -1879.82)"/><rect class="cls-1" x="13.4" y="15.72" width="13" height="2.96"/><rect class="cls-1" x="13.46" y="10.67" width="13.9" height="2.96"/><path class="cls-1" d="M-194.06,1898.5a14.88,14.88,0,0,0,.8-3h-1.58Z" transform="translate(220.46 -1879.82)"/></svg>