<svg id="Layer_1" data-name="Layer 1" xmlns="http://www.w3.org/2000/svg" viewBox="0 0 28.46 24.6"><defs><style>.cls-1{fill:#f6ebf4;}</style></defs><title>other_icon_ver1</title><path class="cls-1" d="M-1816.85,1202.43h-9.55a.5.5,0,0,1-.5-.5.5.5,0,0,1,.5-.5h9.55a.5.5,0,0,1,.5.5A.5.5,0,0,1-1816.85,1202.43Z" transform="translate(1826.9 -1199.74)"/><path class="cls-1" d="M-1799.5,1202.43h-2a.5.5,0,0,1-.5-.5.5.5,0,0,1,.5-.5h2a.5.5,0,0,1,.5.5A.5.5,0,0,1-1799.5,1202.43Zm-4,0h-2a.5.5,0,0,1-.5-.5.5.5,0,0,1,.5-.5h2a.5.5,0,0,1,.5.5A.5.5,0,0,1-1803.5,1202.43Zm-4,0h-2a.5.5,0,0,1-.5-.5.5.5,0,0,1,.5-.5h2a.5.5,0,0,1,.5.5A.5.5,0,0,1-1807.5,1202.43Zm-4,0h-2a.5.5,0,0,1-.5-.5.5.5,0,0,1,.5-.5h2a.5.5,0,0,1,.5.5A.5.5,0,0,1-1811.5,1202.43Z" transform="translate(1826.9 -1199.74)"/><circle class="cls-1" cx="10.05" cy="2.19" r="2.19"/><path class="cls-1" d="M-1809,1212.82h-17.4a.5.5,0,0,1-.5-.5.5.5,0,0,1,.5-.5h17.4a.5.5,0,0,1,.5.5A.5.5,0,0,1-1809,1212.82Z" transform="translate(1826.9 -1199.74)"/><path class="cls-1" d="M-1799.5,1212.82h-2a.5.5,0,0,1-.5-.5.5.5,0,0,1,.5-.5h2a.5.5,0,0,1,.5.5A.5.5,0,0,1-1799.5,1212.82Zm-4,0h-2a.5.5,0,0,1-.5-.5.5.5,0,0,1,.5-.5h2a.5.5,0,0,1,.5.5A.5.5,0,0,1-1803.5,1212.82Zm-4,0h-2a.5.5,0,0,1-.5-.5.5.5,0,0,1,.5-.5h2a.5.5,0,0,1,.5.5A.5.5,0,0,1-1807.5,1212.82Zm-4,0h-2a.5.5,0,0,1-.5-.5.5.5,0,0,1,.5-.5h2a.5.5,0,0,1,.5.5A.5.5,0,0,1-1811.5,1212.82Z" transform="translate(1826.9 -1199.74)"/><circle class="cls-1" cx="17.9" cy="12.58" r="2.19"/><path class="cls-1" d="M-1812.27,1222.65H-1826a.5.5,0,0,1-.5-.5.5.5,0,0,1,.5-.5h13.78a.5.5,0,0,1,.5.5A.5.5,0,0,1-1812.27,1222.65Z" transform="translate(1826.9 -1199.74)"/><path class="cls-1" d="M-1798.93,1222.65h-2a.5.5,0,0,1-.5-.5.5.5,0,0,1,.5-.5h2a.5.5,0,0,1,.5.5A.5.5,0,0,1-1798.93,1222.65Zm-4,0h-2a.5.5,0,0,1-.5-.5.5.5,0,0,1,.5-.5h2a.5.5,0,0,1,.5.5A.5.5,0,0,1-1802.93,1222.65Zm-4,0h-2a.5.5,0,0,1-.5-.5.5.5,0,0,1,.5-.5h2a.5.5,0,0,1,.5.5A.5.5,0,0,1-1806.93,1222.65Zm-4,0h-2a.5.5,0,0,1-.5-.5.5.5,0,0,1,.5-.5h2a.5.5,0,0,1,.5.5A.5.5,0,0,1-1810.93,1222.65Z" transform="translate(1826.9 -1199.74)"/><circle class="cls-1" cx="14.63" cy="22.41" r="2.19"/></svg>