<svg id="Layer_1" data-name="Layer 1" xmlns="http://www.w3.org/2000/svg" viewBox="0 0 24.01 24.01"><defs><style>.cls-1{fill:#9b6bad;}.cls-2{fill:#fff;}</style></defs><title>paginationLeft_h_icon_ver1</title><circle class="cls-1" cx="12" cy="12" r="11.04"/><path class="cls-1" d="M-278.87,1797.6a12,12,0,0,1-12-12,12,12,0,0,1,12-12,12,12,0,0,1,12,12A12,12,0,0,1-278.87,1797.6Zm0-22a10,10,0,0,0-10,10,10,10,0,0,0,10,10,10,10,0,0,0,10-10A10,10,0,0,0-278.87,1775.59Z" transform="translate(290.88 -1773.59)"/><path class="cls-2" d="M-277.15,1792.55a1,1,0,0,1-.71-.29l-5.63-5.63a1,1,0,0,1,0-1.41,1,1,0,0,1,1.41,0l5.63,5.63a1,1,0,0,1,0,1.41A1,1,0,0,1-277.15,1792.55Z" transform="translate(290.88 -1773.59)"/><path class="cls-2" d="M-282.66,1786.86a1,1,0,0,1-.71-.29,1,1,0,0,1,0-1.41l5.63-5.63a1,1,0,0,1,1.41,0,1,1,0,0,1,0,1.41l-5.63,5.63A1,1,0,0,1-282.66,1786.86Z" transform="translate(290.88 -1773.59)"/></svg>