<svg id="Layer_1" data-name="Layer 1" xmlns="http://www.w3.org/2000/svg" viewBox="0 0 16.85 17.35"><defs><style>.cls-1{fill:#9c6bad;}</style></defs><title>refresh_hover_icon_ver1</title><path class="cls-1" d="M-1472.47,1471.38c0-.6,0-1.11,0-1.62a.93.93,0,0,1,.54-.88.81.81,0,0,1,.95.11,1.07,1.07,0,0,1,.35.65c0,1.73,0,3.46,0,5.2a.74.74,0,0,1-.17,0c-1.65,0-3.3,0-4.95,0a.92.92,0,0,1-.91-1.22.93.93,0,0,1,.93-.64h2.16a3.72,3.72,0,0,0-.28-.29,6.31,6.31,0,0,0-6.69-1.11,6.22,6.22,0,0,0-4.09,5.4,6.53,6.53,0,0,0,5.53,7.18,6.56,6.56,0,0,0,7.43-5.35,10.35,10.35,0,0,0,.1-1.13,1,1,0,0,1,1-1,1,1,0,0,1,.91,1,8.42,8.42,0,0,1-7,8.25,8.4,8.4,0,0,1-9.89-8.66,8,8,0,0,1,4.88-7.29,8.13,8.13,0,0,1,8.72,1Z" transform="translate(1486.51 -1468.78)"/></svg>