<svg id="Layer_1" data-name="Layer 1" xmlns="http://www.w3.org/2000/svg" viewBox="0 0 28.19 24.92"><defs><style>.cls-1{fill:#f6ebf4;}</style></defs><title>screenPrinting_icon_ver</title><path class="cls-1" d="M-1798.57,1221.87h-27.19a.5.5,0,0,1-.5-.5.5.5,0,0,1,.5-.5h27.19a.5.5,0,0,1,.5.5A.5.5,0,0,1-1798.57,1221.87Z" transform="translate(1826.26 -1199.43)"/><path class="cls-1" d="M-1798.57,1217.1h-27.19a.5.5,0,0,1-.5-.5.5.5,0,0,1,.5-.5h27.19a.5.5,0,0,1,.5.5A.5.5,0,0,1-1798.57,1217.1Z" transform="translate(1826.26 -1199.43)"/><path class="cls-1" d="M-1798.57,1212.33h-27.19a.5.5,0,0,1-.5-.5.5.5,0,0,1,.5-.5h27.19a.5.5,0,0,1,.5.5A.5.5,0,0,1-1798.57,1212.33Z" transform="translate(1826.26 -1199.43)"/><path class="cls-1" d="M-1798.57,1207.57h-27.19a.5.5,0,0,1-.5-.5.5.5,0,0,1,.5-.5h27.19a.5.5,0,0,1,.5.5A.5.5,0,0,1-1798.57,1207.57Z" transform="translate(1826.26 -1199.43)"/><path class="cls-1" d="M-1798.57,1202.8h-27.19a.5.5,0,0,1-.5-.5.5.5,0,0,1,.5-.5h27.19a.5.5,0,0,1,.5.5A.5.5,0,0,1-1798.57,1202.8Z" transform="translate(1826.26 -1199.43)"/><path class="cls-1" d="M-1821.6,1224.35a.5.5,0,0,1-.5-.5v-23.92a.5.5,0,0,1,.5-.5.5.5,0,0,1,.5.5v23.92A.5.5,0,0,1-1821.6,1224.35Z" transform="translate(1826.26 -1199.43)"/><path class="cls-1" d="M-1816.84,1224.35a.5.5,0,0,1-.5-.5v-23.92a.5.5,0,0,1,.5-.5.5.5,0,0,1,.5.5v23.92A.5.5,0,0,1-1816.84,1224.35Z" transform="translate(1826.26 -1199.43)"/><path class="cls-1" d="M-1812.07,1224.35a.5.5,0,0,1-.5-.5v-23.92a.5.5,0,0,1,.5-.5.5.5,0,0,1,.5.5v23.92A.5.5,0,0,1-1812.07,1224.35Z" transform="translate(1826.26 -1199.43)"/><path class="cls-1" d="M-1807.3,1224.35a.5.5,0,0,1-.5-.5v-23.92a.5.5,0,0,1,.5-.5.5.5,0,0,1,.5.5v23.92A.5.5,0,0,1-1807.3,1224.35Z" transform="translate(1826.26 -1199.43)"/><path class="cls-1" d="M-1802.54,1224.35a.5.5,0,0,1-.5-.5v-23.92a.5.5,0,0,1,.5-.5.5.5,0,0,1,.5.5v23.92A.5.5,0,0,1-1802.54,1224.35Z" transform="translate(1826.26 -1199.43)"/></svg>