<svg id="Layer_1" data-name="Layer 1" xmlns="http://www.w3.org/2000/svg" viewBox="0 0 16.55 17.77"><defs><style>.cls-1{fill:#9b6aad;}</style></defs><title>search_hover_icon_ver1</title><path class="cls-1" d="M840.77,763.06a6.25,6.25,0,1,1,6.25-6.25A6.25,6.25,0,0,1,840.77,763.06Zm0-10.5a4.25,4.25,0,1,0,4.25,4.25A4.25,4.25,0,0,0,840.77,752.57Z" transform="translate(-834.52 -750.57)"/><path class="cls-1" d="M850.07,768.33a1,1,0,0,1-.71-.29l-6.25-6.25a1,1,0,0,1,1.41-1.41l6.25,6.25a1,1,0,0,1-.71,1.71Z" transform="translate(-834.52 -750.57)"/></svg>