<svg id="Layer_1" data-name="Layer 1" xmlns="http://www.w3.org/2000/svg" viewBox="0 0 52.62 58.18"><defs><style>.cls-1{opacity:0.8;}.cls-2{fill:#fff;}</style></defs><title>login_ver1</title><g class="cls-1"><path class="cls-2" d="M3836.26-889.64c-.66-.22-1.33-.42-2-.65a23.08,23.08,0,0,1-9.53-6.37,20.44,20.44,0,0,1-4.7-8.46,20.82,20.82,0,0,1-.74-6.24,8.17,8.17,0,0,1,3-6,8.39,8.39,0,0,1,4.73-2.12,9,9,0,0,1,7.83,2.75,7.72,7.72,0,0,1,2.31,5.54,5.65,5.65,0,0,0,4.45,5.62,6.37,6.37,0,0,0,7-2.69,4.81,4.81,0,0,0,.75-2.58,18.3,18.3,0,0,0-4.87-12.84,21.18,21.18,0,0,0-9.8-6.34,22.77,22.77,0,0,0-7.53-.89,20.88,20.88,0,0,0-8.34,2,20.35,20.35,0,0,0-10.22,10.45,16.44,16.44,0,0,0-1.18,4.9,27.81,27.81,0,0,0,0,5.57,28.65,28.65,0,0,0,1.69,7.27,2.59,2.59,0,0,1,.13.42,1.18,1.18,0,0,1-.79,1.47l-.06,0a3,3,0,0,1-.6.16,1.14,1.14,0,0,1-1.33-.88c-.42-1.33-.86-2.66-1.22-4a30.39,30.39,0,0,1-1-7.56,21.66,21.66,0,0,1,4.48-13.4,24.32,24.32,0,0,1,15.24-9.13,26.65,26.65,0,0,1,6.06-.27,22.7,22.7,0,0,1,9.51,2.63,24,24,0,0,1,11.09,12,18.78,18.78,0,0,1,1.41,5.72,27.52,27.52,0,0,1,.11,3.11,7.28,7.28,0,0,1-1.79,4.7,9.23,9.23,0,0,1-13,1.08,9.23,9.23,0,0,1-2.29-2.92,6.73,6.73,0,0,1-.68-3.13,5.94,5.94,0,0,0-4.87-5.87,6,6,0,0,0-7,3.74,5.33,5.33,0,0,0-.33,2,18,18,0,0,0,6.27,13.78,20.72,20.72,0,0,0,8.7,4.56c.79.21,1,.47,1,1.13,0,1-.27,1.46-1,1.71h-.83Z" transform="translate(-3801.99 947.82)"/><path class="cls-2" d="M3829.67-947.82l1.29.11a39.51,39.51,0,0,1,14.84,4.22,1.3,1.3,0,0,1,.81,1.41,1.37,1.37,0,0,1-.93,1.28,1.69,1.69,0,0,1-1.26-.1,37.28,37.28,0,0,0-10.23-3.52,33.42,33.42,0,0,0-7.23-.51,34,34,0,0,0-9.14,1.55,32.22,32.22,0,0,0-5.41,2.29,3.5,3.5,0,0,1-.89.37,1.26,1.26,0,0,1-1.36-.68,1.49,1.49,0,0,1,.12-1.69,2.18,2.18,0,0,1,.61-.5,34.42,34.42,0,0,1,10.4-3.63,35.26,35.26,0,0,1,5.21-.56h.29Z" transform="translate(-3801.99 947.82)"/><path class="cls-2" d="M3814.8-910.57a24.82,24.82,0,0,0,1.4,8.22,20.5,20.5,0,0,0,3.3,5.73c1.12,1.41,2.32,2.75,3.5,4.11a1.14,1.14,0,0,1,.36,1.13,1.63,1.63,0,0,1-1.14,1.14,1.39,1.39,0,0,1-1.44-.38,33.18,33.18,0,0,1-6.84-9.72A23.34,23.34,0,0,1,3812-907a27.68,27.68,0,0,1-.24-4.56,14,14,0,0,1,2.75-8,16.56,16.56,0,0,1,9.64-6.56,18.08,18.08,0,0,1,5.62-.4,15.81,15.81,0,0,1,8.93,3.49,15.58,15.58,0,0,1,5.63,8.35,14.34,14.34,0,0,1,.46,3.84,1.19,1.19,0,0,1-1.07,1.3h-.22a3.24,3.24,0,0,1-.74,0,1.09,1.09,0,0,1-1-1.15,15.09,15.09,0,0,0-.39-3.26,12.45,12.45,0,0,0-4.13-6.46,13,13,0,0,0-6.47-3.06,15.48,15.48,0,0,0-4.31-.11,13.09,13.09,0,0,0-7.26,3.18,12.17,12.17,0,0,0-4.24,7c-.18,1-.22,1.92-.32,2.88Z" transform="translate(-3801.99 947.82)"/><path class="cls-2" d="M3827.92-940.73a32.73,32.73,0,0,1,13.73,2.74,29.81,29.81,0,0,1,9.58,6.54,28.41,28.41,0,0,1,3,3.63,2.47,2.47,0,0,1,.3.64,1,1,0,0,1-.32,1.21,3.61,3.61,0,0,1-1.07.55,1.06,1.06,0,0,1-1.22-.52,26.94,26.94,0,0,0-16.12-10.89,31,31,0,0,0-9.94-.88,28.68,28.68,0,0,0-16.22,6.37,25.29,25.29,0,0,0-4.86,5.18,1.47,1.47,0,0,1-1.76.68,1.25,1.25,0,0,1-1-1.45,1.25,1.25,0,0,1,.17-.45,14.07,14.07,0,0,1,1-1.48,29.22,29.22,0,0,1,11.24-8.92A32.27,32.27,0,0,1,3827.92-940.73Z" transform="translate(-3801.99 947.82)"/><path class="cls-2" d="M3843.14-895.64a16.08,16.08,0,0,1-7.49-1.43c-4.08-2.11-7.13-5.16-8.43-9.7a13.7,13.7,0,0,1-.52-4.45,1.13,1.13,0,0,1,1-1.16,2.53,2.53,0,0,1,1,0,1,1,0,0,1,.78,1c.07.74.08,1.48.18,2.21a11.21,11.21,0,0,0,2.43,5.6,12.8,12.8,0,0,0,5.84,4.24,13.1,13.1,0,0,0,5.07.73c.79,0,1.57-.19,2.36-.22a4.26,4.26,0,0,1,1.22.17,1.38,1.38,0,0,1,.78,1.79,1.38,1.38,0,0,1-.6.69,4.86,4.86,0,0,1-1.23.29C3844.6-895.73,3843.67-895.73,3843.14-895.64Z" transform="translate(-3801.99 947.82)"/></g></svg>