<?xml version="1.0" encoding="utf-8"?>
<!-- Generator: Adobe Illustrator 21.0.0, SVG Export Plug-In . SVG Version: 6.00 Build 0)  -->
<svg version="1.1" id="Layer_2" xmlns="http://www.w3.org/2000/svg" xmlns:xlink="http://www.w3.org/1999/xlink" x="0px" y="0px"
	 viewBox="0 0 23.2 23.2" style="enable-background:new 0 0 23.2 23.2;" xml:space="preserve">
<style type="text/css">
	.st0{fill:#ADB1B2;}
</style>
<title>calculator_icon_ver1</title>
<path class="st0" d="M4.5,3.6h14.1c1.2,0,2.2,1,2.2,2.2v0.6c0,1.2-1,2.2-2.2,2.2H4.5c-1.2,0-2.2-1-2.2-2.2V5.9
	C2.3,4.6,3.3,3.6,4.5,3.6z"/>
<path class="st0" d="M3.8,11h2.6c0.6,0,1,0.4,1,1v2.6c0,0.6-0.4,1-1,1H3.8c-0.6,0-1-0.4-1-1V12C2.8,11.5,3.2,11,3.8,11z"/>
<path class="st0" d="M10.3,11h2.6c0.6,0,1,0.4,1,1v2.6c0,0.6-0.4,1-1,1h-2.6c-0.6,0-1-0.4-1-1V12C9.3,11.5,9.7,11,10.3,11z"/>
<path class="st0" d="M16.7,11h2.6c0.6,0,1,0.4,1,1v2.6c0,0.6-0.4,1-1,1h-2.6c-0.6,0-1-0.4-1-1V12C15.7,11.5,16.2,11,16.7,11z"/>
<path class="st0" d="M10.3,17.3h2.6c0.6,0,1,0.4,1,1v2.6c0,0.6-0.4,1-1,1h-2.6c-0.6,0-1-0.4-1-1v-2.6C9.3,17.7,9.7,17.3,10.3,17.3z"
	/>
<path class="st0" d="M11.6,23.2C5.2,23.2,0,18,0,11.6C0,5.2,5.2,0,11.6,0C18,0,23.1,5.2,23.2,11.6C23.1,18,18,23.2,11.6,23.2z
	 M11.6,1.5C6,1.5,1.5,6,1.5,11.6c0,5.6,4.5,10.1,10.1,10.1c5.6,0,10.1-4.5,10.1-10.1C21.6,6,17.1,1.6,11.6,1.5L11.6,1.5z"/>
<rect x="1.3" y="6.5" class="st0" width="20.5" height="2.1"/>
<path class="st0" d="M7.3,21.3c0.1-0.1,0.1-0.3,0.1-0.4v-2.6c0-0.6-0.4-1-1-1H3.8c-0.5,0-0.9,0.3-1,0.8L7.3,21.3z"/>
<path class="st0" d="M20.2,17.8c-0.2-0.3-0.5-0.5-0.8-0.5h-2.6c-0.6,0-1,0.4-1,1v2.6c0,0.2,0.1,0.4,0.2,0.5L20.2,17.8z"/>
</svg>
