<svg id="Layer_2" data-name="Layer 2" xmlns="http://www.w3.org/2000/svg" viewBox="0 0 23.17 23.17"><defs><style>.cls-1{fill:#6d5faa;}</style></defs><title>calculator_icon_h_ver1</title><rect class="cls-1" x="2.32" y="3.64" width="18.53" height="5.02" rx="2.22" ry="2.22"/><rect class="cls-1" x="2.8" y="11.02" width="4.63" height="4.63" rx="1" ry="1"/><rect class="cls-1" x="9.27" y="11.02" width="4.63" height="4.63" rx="1" ry="1"/><rect class="cls-1" x="15.74" y="11.02" width="4.63" height="4.63" rx="1" ry="1"/><rect class="cls-1" x="9.27" y="17.27" width="4.63" height="4.63" rx="1" ry="1"/><path class="cls-1" d="M-1067.51,1040.62a11.6,11.6,0,0,1-11.58-11.58,11.6,11.6,0,0,1,11.58-11.58,11.6,11.6,0,0,1,11.58,11.58A11.6,11.6,0,0,1-1067.51,1040.62Zm0-21.67a10.09,10.09,0,0,0-10.08,10.08,10.09,10.09,0,0,0,10.08,10.08,10.09,10.09,0,0,0,10.08-10.08A10.09,10.09,0,0,0-1067.51,1019Z" transform="translate(1079.09 -1017.45)"/><rect class="cls-1" x="1.32" y="6.55" width="20.53" height="2.12"/><path class="cls-1" d="M-1071.77,1038.78a1,1,0,0,0,.1-.42v-2.62a1,1,0,0,0-1-1h-2.62a1,1,0,0,0-1,.76Z" transform="translate(1079.09 -1017.45)"/><path class="cls-1" d="M-1058.89,1035.21a1,1,0,0,0-.83-.48h-2.62a1,1,0,0,0-1,1v2.63a1,1,0,0,0,.18.54Z" transform="translate(1079.09 -1017.45)"/></svg>