<?xml version="1.0" encoding="utf-8"?>
<!-- Generator: Adobe Illustrator 21.0.0, SVG Export Plug-In . SVG Version: 6.00 Build 0)  -->
<svg version="1.1" id="Layer_2" xmlns="http://www.w3.org/2000/svg" xmlns:xlink="http://www.w3.org/1999/xlink" x="0px" y="0px"
	 viewBox="0 0 23.2 23.2" style="enable-background:new 0 0 23.2 23.2;" xml:space="preserve">
<style type="text/css">
	.st0{fill:#ADB1B2;}
</style>
<title>home_icon_ver1</title>
<path class="st0" d="M11.6,23.2C5.2,23.2,0,18,0,11.6C0,5.2,5.2,0,11.6,0C18,0,23.1,5.2,23.2,11.6C23.1,18,18,23.2,11.6,23.2z
	 M11.6,1.5C6,1.5,1.5,6,1.5,11.6c0,0,0,0,0,0c0,5.6,4.5,10.1,10.1,10.1c5.6,0,10.1-4.5,10.1-10.1C21.7,6,17.2,1.5,11.6,1.5
	C11.6,1.5,11.6,1.5,11.6,1.5z"/>
<circle class="st0" cx="11.4" cy="11.6" r="3.9"/>
</svg>
