<svg id="Layer_2" data-name="Layer 2" xmlns="http://www.w3.org/2000/svg" viewBox="0 0 23.17 23.17"><defs><style>.cls-1{font-size:11.04px;font-family:Muli-Bold, Muli;font-weight:700;letter-spacing:0.06em;}.cls-1,.cls-2{fill:#6d5faa;}</style></defs><title>item_icon_h_ver1</title><text class="cls-1" transform="translate(3.62 15.13)">Aa</text><path class="cls-2" d="M-1067.51,1080.68a11.6,11.6,0,0,1-11.58-11.58,11.6,11.6,0,0,1,11.58-11.58,11.6,11.6,0,0,1,11.58,11.58A11.6,11.6,0,0,1-1067.51,1080.68Zm0-21.67a10.09,10.09,0,0,0-10.08,10.08,10.09,10.09,0,0,0,10.08,10.08,10.09,10.09,0,0,0,10.08-10.08A10.09,10.09,0,0,0-1067.51,1059Z" transform="translate(1079.09 -1057.51)"/></svg>