<?xml version="1.0" encoding="utf-8"?>
<!-- Generator: Adobe Illustrator 21.0.0, SVG Export Plug-In . SVG Version: 6.00 Build 0)  -->
<svg version="1.1" id="Layer_2" xmlns="http://www.w3.org/2000/svg" xmlns:xlink="http://www.w3.org/1999/xlink" x="0px" y="0px"
	 viewBox="0 0 23.2 23.2" style="enable-background:new 0 0 23.2 23.2;" xml:space="preserve">
<style type="text/css">
	.st0{fill:#ADB1B2;}
</style>
<title>item_icon_ver1</title>
<g>
	<path class="st0" d="M10.5,15.1l-0.8-1.8H5.9l-0.8,1.8H3.6l3.6-7.9h1.2l3.6,7.9H10.5z M6.3,12.2h2.9L7.8,8.8L6.3,12.2z"/>
	<path class="st0" d="M18.6,9.6v5.6h-1.4v-0.9c-0.2,0.3-0.4,0.6-0.7,0.7s-0.7,0.3-1.1,0.3c-0.5,0-0.9-0.1-1.3-0.4
		c-0.4-0.2-0.7-0.6-0.9-1S13,12.9,13,12.3s0.1-1.1,0.3-1.5c0.2-0.4,0.5-0.8,0.9-1c0.4-0.2,0.8-0.4,1.3-0.4c0.4,0,0.8,0.1,1.1,0.3
		s0.6,0.4,0.7,0.7V9.6H18.6z M16.9,13.7c0.3-0.3,0.4-0.8,0.4-1.3c0-0.6-0.1-1-0.4-1.4s-0.6-0.5-1.1-0.5c-0.5,0-0.8,0.2-1.1,0.5
		s-0.4,0.8-0.4,1.4c0,0.6,0.1,1,0.4,1.3c0.3,0.3,0.6,0.5,1.1,0.5C16.3,14.1,16.7,14,16.9,13.7z"/>
</g>
<path class="st0" d="M11.6,23.2C5.2,23.2,0,18,0,11.6C0,5.2,5.2,0,11.6,0C18,0,23.1,5.2,23.2,11.6C23.1,18,18,23.2,11.6,23.2z
	 M11.6,1.5C6,1.5,1.5,6,1.5,11.6c0,5.6,4.5,10.1,10.1,10.1c5.6,0,10.1-4.5,10.1-10.1C21.7,6,17.1,1.5,11.6,1.5L11.6,1.5z"/>
</svg>
