<?xml version="1.0" encoding="utf-8"?>
<!-- Generator: Adobe Illustrator 21.0.0, SVG Export Plug-In . SVG Version: 6.00 Build 0)  -->
<svg version="1.1" id="Layer_2" xmlns="http://www.w3.org/2000/svg" xmlns:xlink="http://www.w3.org/1999/xlink" x="0px" y="0px"
	 viewBox="0 0 23.2 23.2" style="enable-background:new 0 0 23.2 23.2;" xml:space="preserve">
<style type="text/css">
	.st0{fill:#ADB1B2;}
</style>
<title>mail_icon_ver1</title>
<path class="st0" d="M11.6,17.5c-3.3,0-5.9-2.6-5.9-5.9c0-3.3,2.6-5.9,5.9-5.9c3.3,0,5.9,2.6,5.9,5.9C17.5,14.8,14.8,17.5,11.6,17.5
	z M11.6,7.2c-2.4,0-4.4,2-4.4,4.4c0,2.4,2,4.4,4.4,4.4c2.4,0,4.4-2,4.4-4.4C16,9.1,14,7.2,11.6,7.2z"/>
<path class="st0" d="M19.8,14.2c-0.3,0-0.5,0-0.8-0.1c-2.3-0.6-3.2-3.8-3.3-4.1l1.4-0.4c0.2,0.7,1,2.7,2.3,3.1
	c0.7,0.2,1.5-0.2,2.5-1l1,1.1C22.1,13.6,21,14.1,19.8,14.2z"/>
<path class="st0" d="M17,20c-1.6,1.1-3.5,1.6-5.5,1.6C6,21.7,1.5,17.1,1.5,11.6C1.5,6,6,1.5,11.6,1.5c5.6,0,10.1,4.5,10.1,10.1
	c0,0.7-0.1,1.5-0.3,2.2l0,0c0.6-0.2,1.1-0.5,1.6-0.8c0.1-0.5,0.1-0.9,0.1-1.4C23.1,5.2,18,0,11.6,0C5.2,0,0,5.2,0,11.6
	C0,18,5.2,23.2,11.6,23.2c2.3,0,4.5-0.7,6.4-1.9L17,20z"/>
</svg>
