<svg id="Layer_2" data-name="Layer 2" xmlns="http://www.w3.org/2000/svg" viewBox="0 0 23.17 23.17"><defs><style>.cls-1{fill:#6d5faa;}</style></defs><title>mail_icon_h_ver1</title><path class="cls-1" d="M-979.51,1150.13a5.92,5.92,0,0,1-5.91-5.91,5.92,5.92,0,0,1,5.91-5.91,5.92,5.92,0,0,1,5.91,5.91A5.92,5.92,0,0,1-979.51,1150.13Zm0-10.32a4.42,4.42,0,0,0-4.41,4.41,4.42,4.42,0,0,0,4.41,4.41,4.42,4.42,0,0,0,4.41-4.41A4.42,4.42,0,0,0-979.51,1139.81Z" transform="translate(991.09 -1132.64)"/><path class="cls-1" d="M-971.27,1146.81a3,3,0,0,1-.81-.11c-2.28-.64-3.23-3.75-3.33-4.1l1.44-.41c.21.74,1,2.72,2.29,3.07.7.19,1.53-.15,2.47-1l1,1.1A4.66,4.66,0,0,1-971.27,1146.81Z" transform="translate(991.09 -1132.64)"/><path class="cls-1" d="M-974.06,1152.69a10,10,0,0,1-5.45,1.61,10.09,10.09,0,0,1-10.08-10.08,10.1,10.1,0,0,1,10.08-10.08,10.09,10.09,0,0,1,10.08,10.08,10.05,10.05,0,0,1-.25,2.19h0a9.81,9.81,0,0,0,1.64-.77,11.58,11.58,0,0,0,.09-1.41,11.6,11.6,0,0,0-11.58-11.58,11.6,11.6,0,0,0-11.58,11.58,11.6,11.6,0,0,0,11.58,11.58,11.51,11.51,0,0,0,6.37-1.92Z" transform="translate(991.09 -1132.64)"/></svg>