<?xml version="1.0" encoding="utf-8"?>
<!-- Generator: Adobe Illustrator 21.0.0, SVG Export Plug-In . SVG Version: 6.00 Build 0)  -->
<svg version="1.1" id="Layer_1" xmlns="http://www.w3.org/2000/svg" xmlns:xlink="http://www.w3.org/1999/xlink" x="0px" y="0px"
	 viewBox="0 0 15.4 22.1" style="enable-background:new 0 0 15.4 22.1;" xml:space="preserve">
<style type="text/css">
	.st0{fill:#ADB1B2;}
</style>
<title>mp_icon_ver1</title>
<g>
	<path class="st0" d="M2,12.7v-0.9h9.7v1H4.5l7.2,3.1v0.8l-7.2,3.2l7.2,0v1H2V20l8.4-3.7L2,12.7z"/>
	<path class="st0" d="M2,8.6V4.7c0-1,0.2-1.8,0.7-2.3c0.5-0.6,1.1-0.8,2-0.8c0.8,0,1.5,0.3,2,0.8c0.5,0.6,0.7,1.3,0.7,2.3v2.8h4.3
		v1.1H2z M6.5,4.8c0-0.7-0.2-1.3-0.5-1.6C5.7,2.8,5.3,2.6,4.7,2.6s-1,0.2-1.3,0.5C3,3.5,2.9,4.1,2.9,4.8v2.7h3.6V4.8z"/>
</g>
</svg>
