<svg id="Layer_2" data-name="Layer 2" xmlns="http://www.w3.org/2000/svg" viewBox="0 0 23.17 23.17"><defs><style>.cls-1{fill:#6d5faa;}</style></defs><title>settings_icon_h_ver1</title><path class="cls-1" d="M-979.51,1115.74a11.6,11.6,0,0,1-11.58-11.58,11.6,11.6,0,0,1,11.58-11.58,11.6,11.6,0,0,1,11.58,11.58A11.6,11.6,0,0,1-979.51,1115.74Zm0-21.67a10.09,10.09,0,0,0-10.08,10.08,10.09,10.09,0,0,0,10.08,10.08,10.09,10.09,0,0,0,10.08-10.08A10.09,10.09,0,0,0-979.51,1094.08Z" transform="translate(991.09 -1092.58)"/><path class="cls-1" d="M-983.85,1101.19l1,.16c.12,0,.23,0,.3-.1l0,0a.4.4,0,0,0,.17-.49c-.06-.27-.09-.55-.14-.82a.15.15,0,0,1,.08-.18,5.49,5.49,0,0,1,1.75-.73.17.17,0,0,1,.2.08c.2.28.4.56.61.84a.2.2,0,0,0,.13.07,1,1,0,0,0,.43,0c.11-.06.18-.21.26-.33l.42-.58a.13.13,0,0,1,.16-.06,5.26,5.26,0,0,1,1.81.76.15.15,0,0,1,0,.12c-.05.36-.11.72-.16,1.08a.17.17,0,0,0,0,.12c.06.07.14.12.19.19a.25.25,0,0,0,.29.1l1-.16a.14.14,0,0,1,.16.08,5.42,5.42,0,0,1,.74,1.79.13.13,0,0,1-.06.16l-.85.62a.16.16,0,0,0-.08.16c0,.14,0,.3,0,.42s.21.18.33.26l.58.42a.13.13,0,0,1,.06.16,5.42,5.42,0,0,1-.74,1.79.14.14,0,0,1-.17.07l-1.07-.17a.14.14,0,0,0-.09,0s-.06.07-.1.1a.46.46,0,0,0-.18.57c.06.27.09.54.13.81a.15.15,0,0,1-.05.12,5.13,5.13,0,0,1-1.83.76.17.17,0,0,1-.13-.06l-.62-.85a.17.17,0,0,0-.18-.08.43.43,0,0,1-.14,0,.39.39,0,0,0-.44.22c-.16.24-.34.47-.51.71a.12.12,0,0,1-.15.06,5.45,5.45,0,0,1-1.8-.74c-.08-.05-.08-.11-.07-.19.06-.35.11-.69.16-1a.19.19,0,0,0,0-.13c0-.06-.12-.1-.17-.17a.29.29,0,0,0-.33-.12l-1,.15a.15.15,0,0,1-.12-.05,5.27,5.27,0,0,1-.76-1.8.14.14,0,0,1,.07-.17l.86-.63a.26.26,0,0,0,.07-.13s0-.08,0-.12a.45.45,0,0,0-.26-.51c-.24-.15-.45-.33-.68-.49a.11.11,0,0,1-.05-.14,5.24,5.24,0,0,1,.76-1.83A.24.24,0,0,1-983.85,1101.19Zm4.34.69a2.28,2.28,0,0,0-2.27,2.24,2.28,2.28,0,0,0,2.25,2.29,2.28,2.28,0,0,0,2.29-2.25A2.28,2.28,0,0,0-979.51,1101.88Z" transform="translate(991.09 -1092.58)"/></svg>