<?xml version="1.0" encoding="utf-8"?>
<!-- Generator: Adobe Illustrator 21.0.0, SVG Export Plug-In . SVG Version: 6.00 Build 0)  -->
<svg version="1.1" id="Layer_2" xmlns="http://www.w3.org/2000/svg" xmlns:xlink="http://www.w3.org/1999/xlink" x="0px" y="0px"
	 viewBox="0 0 23.2 23.2" style="enable-background:new 0 0 23.2 23.2;" xml:space="preserve">
<style type="text/css">
	.st0{fill:#ADB1B2;}
</style>
<title>settings_icon_ver1</title>
<path class="st0" d="M11.6,23.2C5.2,23.1,0,18,0,11.6C0,5.2,5.2,0,11.6,0C18,0,23.1,5.2,23.2,11.6C23.1,18,18,23.1,11.6,23.2z
	 M11.6,1.5C6,1.5,1.5,6,1.5,11.6c0,5.6,4.5,10.1,10.1,10.1c5.6,0,10.1-4.5,10.1-10.1C21.6,6,17.1,1.5,11.6,1.5L11.6,1.5z"/>
<path class="st0" d="M7.2,8.6l1,0.2c0.1,0,0.2,0,0.3-0.1l0,0c0.2-0.1,0.2-0.3,0.2-0.5C8.7,7.9,8.6,7.6,8.6,7.4c0-0.1,0-0.1,0.1-0.2
	c0.5-0.3,1.1-0.6,1.8-0.7c0.1,0,0.2,0,0.2,0.1c0.2,0.3,0.4,0.6,0.6,0.8c0,0,0.1,0.1,0.1,0.1c0.1,0,0.3,0,0.4,0
	C11.9,7.4,12,7.2,12,7.1l0.4-0.6c0-0.1,0.1-0.1,0.2-0.1c0.6,0.1,1.3,0.4,1.8,0.8c0,0,0,0.1,0,0.1c-0.1,0.4-0.1,0.7-0.2,1.1
	c0,0,0,0.1,0,0.1c0.1,0.1,0.1,0.1,0.2,0.2c0.1,0.1,0.2,0.1,0.3,0.1l1-0.2c0.1,0,0.1,0,0.2,0.1c0.4,0.5,0.6,1.2,0.7,1.8
	c0,0.1,0,0.1-0.1,0.2l-0.8,0.6c-0.1,0-0.1,0.1-0.1,0.2c0,0.1,0,0.3,0,0.4s0.2,0.2,0.3,0.3l0.6,0.4c0.1,0,0.1,0.1,0.1,0.2
	c-0.1,0.6-0.4,1.2-0.7,1.8c0,0.1-0.1,0.1-0.2,0.1l-1.1-0.2c0,0-0.1,0-0.1,0c0,0-0.1,0.1-0.1,0.1c-0.2,0.1-0.3,0.4-0.2,0.6
	c0.1,0.3,0.1,0.5,0.1,0.8c0,0,0,0.1-0.1,0.1c-0.6,0.4-1.2,0.6-1.8,0.8c-0.1,0-0.1,0-0.1-0.1l-0.6-0.8c0-0.1-0.1-0.1-0.2-0.1
	c0,0-0.1,0-0.1,0c-0.2,0-0.4,0.1-0.4,0.2c-0.2,0.2-0.3,0.5-0.5,0.7c0,0.1-0.1,0.1-0.2,0.1c-0.6-0.1-1.2-0.4-1.8-0.7
	c-0.1-0.1-0.1-0.1-0.1-0.2c0.1-0.3,0.1-0.7,0.2-1c0,0,0-0.1,0-0.1c0-0.1-0.1-0.1-0.2-0.2c-0.1-0.1-0.2-0.2-0.3-0.1l-1,0.2
	c0,0-0.1,0-0.1-0.1c-0.4-0.5-0.6-1.2-0.8-1.8c0-0.1,0-0.1,0.1-0.2l0.9-0.6c0,0,0.1-0.1,0.1-0.1c0,0,0-0.1,0-0.1
	c0-0.2-0.1-0.4-0.3-0.5c-0.2-0.2-0.4-0.3-0.7-0.5c-0.1,0-0.1-0.1-0.1-0.1C6.4,9.9,6.7,9.3,7,8.7C7.1,8.7,7.2,8.6,7.2,8.6z M11.6,9.3
	c-1.2,0-2.2,1-2.3,2.2c0,1.3,1,2.3,2.3,2.3c1.3,0,2.3-1,2.3-2.3C13.8,10.3,12.8,9.3,11.6,9.3L11.6,9.3z"/>
</svg>
