<svg id="Layer_1" data-name="Layer 1" xmlns="http://www.w3.org/2000/svg" viewBox="0 0 42.05 42.05"><defs><style>.cls-1{fill:#fff;opacity:0.01;}.cls-2{fill:#f7aaaa;}</style></defs><title>0_a_ver1</title><circle class="cls-1" cx="21.02" cy="21.02" r="21.02"/><path class="cls-2" d="M-321.64,325.94a28.17,28.17,0,0,1,1.12-8.79,10.93,10.93,0,0,1,3.34-5.13,8.54,8.54,0,0,1,5.57-1.81,9.1,9.1,0,0,1,4.35,1,8.31,8.31,0,0,1,3.09,2.88,15.47,15.47,0,0,1,1.91,4.58,30.42,30.42,0,0,1,.69,7.28,28.24,28.24,0,0,1-1.11,8.75,10.92,10.92,0,0,1-3.33,5.14,8.53,8.53,0,0,1-5.6,1.82,8.45,8.45,0,0,1-7-3.19Q-321.64,334.61-321.64,325.94Zm3.88,0q0,7.58,1.77,10.09a5.23,5.23,0,0,0,4.38,2.51,5.22,5.22,0,0,0,4.38-2.52q1.78-2.52,1.77-10.08t-1.77-10.1a5.27,5.27,0,0,0-4.42-2.5,4.84,4.84,0,0,0-4.16,2.2Q-317.76,318.36-317.76,325.94Z" transform="translate(332.63 -304.91)"/></svg>