<svg id="Layer_1" data-name="Layer 1" xmlns="http://www.w3.org/2000/svg" viewBox="0 0 42.05 42.05"><defs><style>.cls-1{fill:#fff;opacity:0.01;}.cls-2{fill:#f7aaaa;}</style></defs><title>2_a_ver1</title><circle class="cls-1" cx="21.02" cy="21.02" r="21.02"/><path class="cls-2" d="M-301.43,337.75v3.63h-20.35a6.67,6.67,0,0,1,.44-2.62,13.86,13.86,0,0,1,2.49-4.09A39,39,0,0,1-313.9,330a41.88,41.88,0,0,0,6.78-6.52,7.81,7.81,0,0,0,1.76-4.55,5,5,0,0,0-1.61-3.79,5.79,5.79,0,0,0-4.19-1.54,5.9,5.9,0,0,0-4.37,1.64,6.19,6.19,0,0,0-1.66,4.54l-3.88-.4a9.56,9.56,0,0,1,3-6.62,10.24,10.24,0,0,1,7-2.28,9.76,9.76,0,0,1,7,2.46,8.07,8.07,0,0,1,2.58,6.09,9.23,9.23,0,0,1-.76,3.63,14.12,14.12,0,0,1-2.51,3.76,61.14,61.14,0,0,1-5.83,5.42q-3.4,2.86-4.37,3.87a12.43,12.43,0,0,0-1.6,2Z" transform="translate(332.63 -304.91)"/></svg>