<svg id="Layer_1" data-name="Layer 1" xmlns="http://www.w3.org/2000/svg" viewBox="0 0 42.05 42.05"><defs><style>.cls-1,.cls-3{fill:#fff;}.cls-1{opacity:0.01;}.cls-2{opacity:0.35;}</style></defs><title>3_ver1</title><circle class="cls-1" cx="21.02" cy="21.02" r="21.02"/><g class="cls-2"><path class="cls-3" d="M-321.68,333l3.78-.5a8.33,8.33,0,0,0,2.22,4.63,5.47,5.47,0,0,0,3.81,1.42,6.11,6.11,0,0,0,4.5-1.85,6.23,6.23,0,0,0,1.84-4.58,5.8,5.8,0,0,0-1.7-4.29,5.88,5.88,0,0,0-4.33-1.69,10.86,10.86,0,0,0-2.67.42l.42-3.32a5.69,5.69,0,0,0,.61,0,7.79,7.79,0,0,0,4.35-1.26,4.31,4.31,0,0,0,1.93-3.88,4.6,4.6,0,0,0-1.41-3.44,5,5,0,0,0-3.63-1.36,5.15,5.15,0,0,0-3.67,1.39,7,7,0,0,0-1.89,4.16l-3.78-.67a9.72,9.72,0,0,1,3.15-5.89A9.11,9.11,0,0,1-312,310.2a10.07,10.07,0,0,1,4.64,1.08,7.82,7.82,0,0,1,3.24,3,7.58,7.58,0,0,1,1.12,4,6.5,6.5,0,0,1-1.07,3.63,7.32,7.32,0,0,1-3.17,2.6,7.14,7.14,0,0,1,4.24,2.61,8,8,0,0,1,1.51,5,9.09,9.09,0,0,1-2.94,6.83,10.34,10.34,0,0,1-7.43,2.8,9.67,9.67,0,0,1-6.73-2.41A9.34,9.34,0,0,1-321.68,333Z" transform="translate(332.63 -304.91)"/></g></svg>