<svg id="Layer_1" data-name="Layer 1" xmlns="http://www.w3.org/2000/svg" viewBox="0 0 42.05 42.05"><defs><style>.cls-1{fill:#fff;opacity:0.01;}.cls-2{fill:#f8abab;}</style></defs><title>5_a_ver1</title><circle class="cls-1" cx="21.02" cy="21.02" r="21.02"/><path class="cls-2" d="M-429.73,401.79l4-.34a7.11,7.11,0,0,0,2,4.36,5.56,5.56,0,0,0,3.87,1.46,6,6,0,0,0,4.62-2.06,7.75,7.75,0,0,0,1.89-5.46,7,7,0,0,0-1.82-5.1,6.33,6.33,0,0,0-4.76-1.87,6.59,6.59,0,0,0-3.3.83,6.41,6.41,0,0,0-2.31,2.15l-3.55-.46,3-15.81h15.31v3.61h-12.28l-1.66,8.27a10,10,0,0,1,5.82-1.93,9.22,9.22,0,0,1,6.8,2.79,9.76,9.76,0,0,1,2.77,7.18,11.21,11.21,0,0,1-2.44,7.22,9.76,9.76,0,0,1-8.08,3.74A10,10,0,0,1-426.7,408,9.17,9.17,0,0,1-429.73,401.79Z" transform="translate(440.55 -373.91)"/></svg>