<svg id="Layer_1" data-name="Layer 1" xmlns="http://www.w3.org/2000/svg" viewBox="0 0 42.05 42.05"><defs><style>.cls-1{fill:#fff;opacity:0.01;}.cls-2{fill:#f8abab;}</style></defs><title>6_a_ver1</title><circle class="cls-1" cx="21.02" cy="21.02" r="21.02"/><path class="cls-2" d="M-406.87,375.88l-3.76.29a7.11,7.11,0,0,0-1.43-3.23,5,5,0,0,0-3.78-1.62,5.19,5.19,0,0,0-3.17,1,8.61,8.61,0,0,0-2.81,3.8,19.85,19.85,0,0,0-1.07,7.12,8.77,8.77,0,0,1,3.34-3.09,9,9,0,0,1,4.14-1,8.57,8.57,0,0,1,6.44,2.78,10,10,0,0,1,2.66,7.19,11.84,11.84,0,0,1-1.25,5.39,9.1,9.1,0,0,1-3.43,3.81,9.37,9.37,0,0,1-5,1.32,9.68,9.68,0,0,1-7.71-3.48q-3-3.47-3-11.45,0-8.92,3.3-13a9.48,9.48,0,0,1,7.75-3.53,8.69,8.69,0,0,1,6,2A8.64,8.64,0,0,1-406.87,375.88Zm-15.43,13.27a8.75,8.75,0,0,0,.83,3.74,6.18,6.18,0,0,0,2.32,2.72,5.8,5.8,0,0,0,3.13.93,5.33,5.33,0,0,0,4.12-1.93,7.6,7.6,0,0,0,1.72-5.25,7.12,7.12,0,0,0-1.7-5,5.59,5.59,0,0,0-4.28-1.84,5.83,5.83,0,0,0-4.35,1.84A6.63,6.63,0,0,0-422.3,389.15Z" transform="translate(437.51 -362.91)"/></svg>