<svg id="Layer_1" data-name="Layer 1" xmlns="http://www.w3.org/2000/svg" viewBox="0 0 42.05 42.05"><defs><style>.cls-1{fill:#fff;opacity:0.01;}.cls-2{fill:#f8abab;}</style></defs><title>8_a_ver1</title><circle class="cls-1" cx="21.02" cy="21.02" r="21.02"/><path class="cls-2" d="M-420.69,382.43a7.12,7.12,0,0,1-3.49-2.46,6.42,6.42,0,0,1-1.13-3.82,7.47,7.47,0,0,1,2.42-5.65,9,9,0,0,1,6.42-2.29,9,9,0,0,1,6.49,2.34,7.58,7.58,0,0,1,2.46,5.7,6.29,6.29,0,0,1-1.12,3.73,7.09,7.09,0,0,1-3.41,2.45,8.27,8.27,0,0,1,4.31,3,8.19,8.19,0,0,1,1.48,4.91,8.84,8.84,0,0,1-2.79,6.64,10.15,10.15,0,0,1-7.35,2.69,10.13,10.13,0,0,1-7.35-2.7,9,9,0,0,1-2.79-6.73,8.13,8.13,0,0,1,1.52-5A7.63,7.63,0,0,1-420.69,382.43Zm-2,7.81a6.84,6.84,0,0,0,.77,3.13,5.41,5.41,0,0,0,2.28,2.34,6.66,6.66,0,0,0,3.25.83,6.1,6.1,0,0,0,4.47-1.74,6,6,0,0,0,1.76-4.43,6.06,6.06,0,0,0-1.82-4.51,6.23,6.23,0,0,0-4.55-1.78,6,6,0,0,0-4.42,1.76A6,6,0,0,0-422.67,390.24Zm1.22-14.22a4.79,4.79,0,0,0,1.41,3.57,5,5,0,0,0,3.65,1.39,4.89,4.89,0,0,0,3.58-1.37,4.55,4.55,0,0,0,1.4-3.37,4.71,4.71,0,0,0-1.44-3.5,4.9,4.9,0,0,0-3.58-1.42,5,5,0,0,0-3.59,1.39A4.46,4.46,0,0,0-421.45,376Z" transform="translate(437.44 -362.91)"/></svg>