<svg id="Layer_1" data-name="Layer 1" xmlns="http://www.w3.org/2000/svg" viewBox="0 0 42.05 42.05"><defs><style>.cls-1{fill:#fff;opacity:0.01;}.cls-2{fill:#f8abab;}</style></defs><title>9_a_ver1</title><circle class="cls-1" cx="21.02" cy="21.02" r="21.02"/><path class="cls-2" d="M-478.93,378l3.63-.34a6.31,6.31,0,0,0,1.76,3.72,4.84,4.84,0,0,0,3.34,1.16,5.77,5.77,0,0,0,3.05-.8,6.52,6.52,0,0,0,2.15-2.13,12.54,12.54,0,0,0,1.41-3.6,19,19,0,0,0,.57-4.62q0-.25,0-.76a8.66,8.66,0,0,1-3.1,2.93,8.42,8.42,0,0,1-4.25,1.12,8.6,8.6,0,0,1-6.47-2.77,10.14,10.14,0,0,1-2.65-7.31,10.39,10.39,0,0,1,2.76-7.54,9.23,9.23,0,0,1,6.92-2.86,9.87,9.87,0,0,1,5.49,1.62,10.1,10.1,0,0,1,3.78,4.61,22.71,22.71,0,0,1,1.29,8.66,28,28,0,0,1-1.28,9.4,11,11,0,0,1-3.81,5.32,9.87,9.87,0,0,1-5.93,1.83,8.62,8.62,0,0,1-5.9-2A8.62,8.62,0,0,1-478.93,378Zm15.48-13.59a7.4,7.4,0,0,0-1.73-5.17,5.43,5.43,0,0,0-4.17-1.91,5.76,5.76,0,0,0-4.39,2.06,7.63,7.63,0,0,0-1.87,5.33,6.59,6.59,0,0,0,1.77,4.78,5.84,5.84,0,0,0,4.38,1.84,5.6,5.6,0,0,0,4.32-1.84A7.24,7.24,0,0,0-463.45,364.42Z" transform="translate(490.4 -348.91)"/></svg>