<svg id="Layer_1" data-name="Layer 1" xmlns="http://www.w3.org/2000/svg" viewBox="0 0 42.05 42.05"><defs><style>.cls-1{fill:#fff;opacity:0.01;}.cls-2{fill:#f7aaaa;}</style></defs><title>delete_a_ver1</title><circle class="cls-1" cx="21.02" cy="21.02" r="21.02"/><path class="cls-2" d="M-321,327.28h-6.66v-3.46a.9.9,0,0,0-.45-.78.9.9,0,0,0-.9,0l-8.85,5.11a.9.9,0,0,0-.45.78.9.9,0,0,0,.45.78l8.85,5.11a.9.9,0,0,0,.45.12.9.9,0,0,0,.45-.12.9.9,0,0,0,.45-.78v-3.46H-321a1.64,1.64,0,0,0,1.64-1.64h0A1.64,1.64,0,0,0-321,327.28Z" transform="translate(349.88 -307.91)"/></svg>