<svg id="Layer_1" data-name="Layer 1" xmlns="http://www.w3.org/2000/svg" viewBox="0 0 42.05 42.05"><defs><style>.cls-1{fill:#fff;opacity:0.35;}</style></defs><title>enter_ver1</title><path class="cls-1" d="M-466.15,344.23a21,21,0,0,0-21,21,21,21,0,0,0,21,21,21,21,0,0,0,21-21A21,21,0,0,0-466.15,344.23Zm0,30.91a9.9,9.9,0,0,1-9.89-9.89,9.9,9.9,0,0,1,9.89-9.89,9.9,9.9,0,0,1,9.89,9.89A9.9,9.9,0,0,1-466.15,375.15Z" transform="translate(487.17 -344.23)"/><circle class="cls-1" cx="21.02" cy="21.02" r="7.89"/></svg>