<svg id="Layer_1" data-name="Layer 1" xmlns="http://www.w3.org/2000/svg" viewBox="0 0 42.05 42.05"><defs><style>.cls-1{fill:#fff;opacity:0.35;}</style></defs><title>help_ver1</title><path class="cls-1" d="M-466,344.42a21,21,0,0,0-21,21,21,21,0,0,0,21,21,21,21,0,0,0,21-21A21,21,0,0,0-466,344.42Zm1.2,29.72h-2.39v-2.39h2.39Zm3.79-10.66a9.78,9.78,0,0,1-2.05,2.3,10.38,10.38,0,0,0-1.34,1.34,3,3,0,0,0-.47,1,8.31,8.31,0,0,0-.17,1.82h-2q0-.42,0-.63a5.87,5.87,0,0,1,.35-2.13,4.86,4.86,0,0,1,.83-1.36,15.64,15.64,0,0,1,1.51-1.46,7.14,7.14,0,0,0,1.42-1.53,2.47,2.47,0,0,0,.33-1.25,2.91,2.91,0,0,0-1-2.15,3.24,3.24,0,0,0-2.34-.93,3.15,3.15,0,0,0-2.24.84,4.42,4.42,0,0,0-1.18,2.62l-2.16-.26a5.58,5.58,0,0,1,1.73-3.66,5.55,5.55,0,0,1,3.81-1.27,5.7,5.7,0,0,1,4,1.36,4.31,4.31,0,0,1,1.49,3.3A4.18,4.18,0,0,1-461,363.48Z" transform="translate(487.02 -344.42)"/></svg>