<svg id="Layer_1" data-name="Layer 1" xmlns="http://www.w3.org/2000/svg" viewBox="0 0 42.05 42.05"><defs><style>.cls-1{fill:#fff;opacity:0.35;}</style></defs><title>list_ver1</title><path class="cls-1" d="M-465.21,344.41a21,21,0,0,0-21,21,21,21,0,0,0,21,21,21,21,0,0,0,21-21A21,21,0,0,0-465.21,344.41Zm5.58,27.46h-11.13a1,1,0,0,1-1-1,1,1,0,0,1,1-1h11.13a1,1,0,0,1,1,1A1,1,0,0,1-459.64,371.87Zm-12.18-6.43a1,1,0,0,1,1-1h11.13a1,1,0,0,1,1,1,1,1,0,0,1-1,1h-11.13A1,1,0,0,1-471.82,365.44Zm12.18-4.36h-11.13a1,1,0,0,1-1-1,1,1,0,0,1,1-1h11.13a1,1,0,0,1,1,1A1,1,0,0,1-459.64,361.08Z" transform="translate(486.24 -344.41)"/></svg>