<svg id="Layer_1" data-name="Layer 1" xmlns="http://www.w3.org/2000/svg" viewBox="0 0 98.45 16.6"><defs><style>.cls-1{fill:#fff;}</style></defs><title>logo_ver1</title><path class="cls-1" d="M-135.19,400.06a.73.73,0,0,1,.2.54v7.85a4.11,4.11,0,0,1-1,3,4.19,4.19,0,0,1-3.07,1,6.38,6.38,0,0,1-3.29-.78q-.67-.37-.67-.85a.64.64,0,0,1,.14-.43.45.45,0,0,1,.36-.17,1.79,1.79,0,0,1,.67.26,8.56,8.56,0,0,0,1.28.54,4.89,4.89,0,0,0,1.5.2,2.62,2.62,0,0,0,2-.69,2.81,2.81,0,0,0,.67-2V407a2.82,2.82,0,0,1-1.19,1.33,3.74,3.74,0,0,1-1.9.46,4,4,0,0,1-2.1-.56,3.75,3.75,0,0,1-1.42-1.57,5.18,5.18,0,0,1-.51-2.35,5.19,5.19,0,0,1,.51-2.35,3.75,3.75,0,0,1,1.42-1.57,4,4,0,0,1,2.1-.56,3.66,3.66,0,0,1,1.87.46,3,3,0,0,1,1.2,1.31v-1a.75.75,0,0,1,.19-.54.72.72,0,0,1,.55-.2A.75.75,0,0,1-135.19,400.06Zm-2,6.61a3.53,3.53,0,0,0,.74-2.38,3.53,3.53,0,0,0-.73-2.36,2.54,2.54,0,0,0-2-.86,2.59,2.59,0,0,0-2.06.86,3.47,3.47,0,0,0-.75,2.36,3.5,3.5,0,0,0,.75,2.38,2.59,2.59,0,0,0,2.06.86A2.54,2.54,0,0,0-137.22,406.68Z" transform="translate(143.59 -395.92)"/><path class="cls-1" d="M-124.88,400.49a.66.66,0,0,1-.17.47.89.89,0,0,1-.57.21l-.56.06a2.49,2.49,0,0,0-1.84.88,2.84,2.84,0,0,0-.6,1.8v4.5a.71.71,0,0,1-.2.56.77.77,0,0,1-.54.19.78.78,0,0,1-.55-.19.7.7,0,0,1-.21-.55V400.6a.69.69,0,0,1,.22-.55.79.79,0,0,1,.54-.19.7.7,0,0,1,.5.19.69.69,0,0,1,.2.53v1a2.81,2.81,0,0,1,1.1-1.24,3.73,3.73,0,0,1,1.64-.5l.26,0Q-124.88,399.8-124.88,400.49Z" transform="translate(143.59 -395.92)"/><path class="cls-1" d="M-121.28,409a.7.7,0,0,1-.21-.55V400.6a.7.7,0,0,1,.21-.55.78.78,0,0,1,.55-.19.75.75,0,0,1,.54.19.72.72,0,0,1,.2.55v7.81a.71.71,0,0,1-.2.56.77.77,0,0,1-.54.19A.78.78,0,0,1-121.28,409Z" transform="translate(143.59 -395.92)"/><path class="cls-1" d="M-107.32,396.12a.7.7,0,0,1,.2.52v11.77a.73.73,0,0,1-.2.54.75.75,0,0,1-.56.2.72.72,0,0,1-.55-.2.74.74,0,0,1-.19-.54v-1a3,3,0,0,1-1.19,1.31,3.56,3.56,0,0,1-1.84.46,3.73,3.73,0,0,1-2.09-.59,3.91,3.91,0,0,1-1.41-1.66,5.75,5.75,0,0,1-.5-2.47,5.65,5.65,0,0,1,.5-2.44,3.79,3.79,0,0,1,1.41-1.63,3.83,3.83,0,0,1,2.09-.57,3.57,3.57,0,0,1,1.84.46,3,3,0,0,1,1.19,1.31v-5a.71.71,0,0,1,.19-.53.74.74,0,0,1,.55-.19A.75.75,0,0,1-107.32,396.12Zm-2,10.93a4,4,0,0,0,.71-2.54,4,4,0,0,0-.71-2.53,2.45,2.45,0,0,0-2-.89,2.5,2.5,0,0,0-2,.89,3.83,3.83,0,0,0-.73,2.5,4,4,0,0,0,.73,2.56,2.47,2.47,0,0,0,2,.92A2.44,2.44,0,0,0-109.33,407Z" transform="translate(143.59 -395.92)"/><path class="cls-1" d="M-94.86,400.06a.75.75,0,0,1,.19.54v7.83a.72.72,0,0,1-.19.52.72.72,0,0,1-.55.2.71.71,0,0,1-.53-.19.69.69,0,0,1-.19-.51v-.93a2.93,2.93,0,0,1-1.19,1.24,3.51,3.51,0,0,1-1.73.43,3.11,3.11,0,0,1-2.42-.9,3.83,3.83,0,0,1-.81-2.66v-5a.73.73,0,0,1,.2-.54.75.75,0,0,1,.56-.2.72.72,0,0,1,.55.2.75.75,0,0,1,.19.54v5a2.69,2.69,0,0,0,.48,1.77,1.89,1.89,0,0,0,1.52.56,2.49,2.49,0,0,0,1.91-.77,2.84,2.84,0,0,0,.72-2V400.6a.73.73,0,0,1,.2-.54.75.75,0,0,1,.56-.2A.72.72,0,0,1-94.86,400.06Z" transform="translate(143.59 -395.92)"/><path class="cls-1" d="M-89.57,409a.7.7,0,0,1-.21-.55V396.66a.7.7,0,0,1,.21-.55.78.78,0,0,1,.55-.19.75.75,0,0,1,.53.19.7.7,0,0,1,.21.55v11.75a.7.7,0,0,1-.21.55.75.75,0,0,1-.53.19A.78.78,0,0,1-89.57,409Z" transform="translate(143.59 -395.92)"/><path class="cls-1" d="M-76.33,403.37v5a.75.75,0,0,1-.19.54.7.7,0,0,1-.53.2.73.73,0,0,1-.54-.2.72.72,0,0,1-.2-.54v-.89a2.65,2.65,0,0,1-1.07,1.23,3.16,3.16,0,0,1-1.67.43,3.64,3.64,0,0,1-1.6-.35,2.85,2.85,0,0,1-1.16-1,2.42,2.42,0,0,1-.43-1.39,2.25,2.25,0,0,1,.52-1.58,3.14,3.14,0,0,1,1.7-.81,16.81,16.81,0,0,1,3.29-.25h.41v-.61a2.43,2.43,0,0,0-.45-1.63,1.86,1.86,0,0,0-1.47-.52,5.43,5.43,0,0,0-2.55.68,1.69,1.69,0,0,1-.7.31.47.47,0,0,1-.37-.17.62.62,0,0,1-.15-.43.7.7,0,0,1,.16-.45,1.84,1.84,0,0,1,.51-.4,6,6,0,0,1,1.47-.58,6.53,6.53,0,0,1,1.64-.21Q-76.33,399.82-76.33,403.37Zm-2.17,3.88a2.69,2.69,0,0,0,.71-1.93v-.54h-.33a16.55,16.55,0,0,0-2.48.14,2.41,2.41,0,0,0-1.21.46,1.21,1.21,0,0,0-.36,1,1.53,1.53,0,0,0,.53,1.19,1.91,1.91,0,0,0,1.32.47A2.4,2.4,0,0,0-78.5,407.25Z" transform="translate(143.59 -395.92)"/><path class="cls-1" d="M-66.69,408.55a.53.53,0,0,1-.23.47,1.09,1.09,0,0,1-.69.12l-.5,0a3.14,3.14,0,0,1-2.18-.89,3.41,3.41,0,0,1-.7-2.35v-4.64h-1.24a.71.71,0,0,1-.49-.16.53.53,0,0,1-.18-.42.58.58,0,0,1,.18-.44.68.68,0,0,1,.49-.17H-71V398a.72.72,0,0,1,.2-.55.77.77,0,0,1,.56-.19.75.75,0,0,1,.54.19.72.72,0,0,1,.2.55V400h2.05a.66.66,0,0,1,.47.17.58.58,0,0,1,.18.44.53.53,0,0,1-.18.42.68.68,0,0,1-.47.16H-69.5v4.72a2.14,2.14,0,0,0,.42,1.47,1.78,1.78,0,0,0,1.25.51l.5,0Q-66.69,408-66.69,408.55Z" transform="translate(143.59 -395.92)"/><path class="cls-1" d="M-45.14,400.49a.66.66,0,0,1-.17.47.89.89,0,0,1-.57.21l-.56.06a2.49,2.49,0,0,0-1.84.88,2.84,2.84,0,0,0-.6,1.8v4.5a.71.71,0,0,1-.2.56.77.77,0,0,1-.54.19.78.78,0,0,1-.55-.19.7.7,0,0,1-.21-.55V400.6a.69.69,0,0,1,.22-.55.79.79,0,0,1,.54-.19.7.7,0,0,1,.5.19.69.69,0,0,1,.2.53v1a2.81,2.81,0,0,1,1.1-1.24,3.73,3.73,0,0,1,1.64-.5l.26,0Q-45.14,399.8-45.14,400.49Z" transform="translate(143.59 -395.92)"/><path class="cls-1" d="M-54.69,404.5a4.68,4.68,0,0,0-2.52-4.15,4.23,4.23,0,0,0-1.62-.5l-.18,0h-.89a4.17,4.17,0,0,0-1.74.55l-.08.05a4.68,4.68,0,0,0-2.34,4.05,4.68,4.68,0,0,0,2.21,4l.21.14a4.34,4.34,0,0,0,2.25.57h0l.47,0h0a4.23,4.23,0,0,0,1.77-.55l0,0A4.68,4.68,0,0,0-54.69,404.5Z" transform="translate(143.59 -395.92)"/></svg>