<svg id="Layer_1" data-name="Layer 1" xmlns="http://www.w3.org/2000/svg" viewBox="0 0 42.05 42.05"><defs><style>.cls-1{fill:#fff;opacity:0.35;}</style></defs><title>no_ver1</title><path class="cls-1" d="M-465.6,344.16a21,21,0,0,0-21,21,21,21,0,0,0,21,21,21,21,0,0,0,21-21A21,21,0,0,0-465.6,344.16Zm6.16,25.72a1,1,0,0,1,0,1.46,1,1,0,0,1-1.46,0l-4.7-4.7-4.7,4.7a1,1,0,0,1-1.46,0,1,1,0,0,1,0-1.46l4.7-4.7-4.7-4.7a1,1,0,0,1,0-1.46,1,1,0,0,1,1.46,0l4.7,4.7,4.7-4.7a1,1,0,0,1,1.46,0,1,1,0,0,1,0,1.46l-4.7,4.7Z" transform="translate(486.63 -344.16)"/></svg>