<svg id="Layer_1" data-name="Layer 1" xmlns="http://www.w3.org/2000/svg" viewBox="0 0 42.05 42.05"><defs><style>.cls-1{fill:#f8abab;}</style></defs><title>yes_a_ver1</title><path class="cls-1" d="M-465.83,344.16a21,21,0,0,0-21,21,21,21,0,0,0,21,21,21,21,0,0,0,21-21A21,21,0,0,0-465.83,344.16Zm6.69,16-7.09,11v0a1,1,0,0,1-.66.45,1,1,0,0,1-.78-.14l0,0-4.49-2.89a1,1,0,0,1-.31-1.43,1,1,0,0,1,1.43-.31l3.66,2.35,6.56-10.21a1,1,0,0,1,1.43-.31A1,1,0,0,1-459.14,360.2Z" transform="translate(486.85 -344.16)"/></svg>