<svg id="Layer_1" data-name="Layer 1" xmlns="http://www.w3.org/2000/svg" viewBox="0 0 82.86 82.86"><defs><style>.cls-1,.cls-3{fill:#fff;}.cls-1{opacity:0.3;}.cls-2{opacity:0.85;}</style></defs><title>angular_ver1</title><path class="cls-1" d="M756.06,1697a41.43,41.43,0,1,1,41.43-41.43A41.48,41.48,0,0,1,756.06,1697Zm0-80.86a39.43,39.43,0,1,0,39.43,39.43A39.48,39.48,0,0,0,756.06,1616.14Z" transform="translate(-714.63 -1614.14)"/><g class="cls-2"><path class="cls-3" d="M756,1637.51h.12l.17.08,7.88,2.82,9.5,3.4c.14,0,.2.11.18.26-.05.41-.09.81-.14,1.22l-.26,2.34-.29,2.66-.3,2.7-.25,2.28-.27,2.38-.25,2.28-.3,2.69-.26,2.3c-.1.89-.2,1.78-.3,2.68a.33.33,0,0,1-.19.29l-14.84,8.4a.29.29,0,0,1-.34,0l-6.92-3.92-7.91-4.47a.33.33,0,0,1-.2-.3c0-.4-.08-.8-.13-1.2l-.26-2.36-.29-2.64-.3-2.69-.3-2.7-.3-2.68L739,1651l-.3-2.68-.26-2.3c-.07-.65-.14-1.3-.22-1.95a.21.21,0,0,1,.17-.27l15.7-5.61Zm0,3.41-11.37,25h4.06a.24.24,0,0,0,.27-.19c.68-1.8,1.37-3.59,2-5.39a.27.27,0,0,1,.3-.21c3.14-.06,6.28-.07,9.42,0a.26.26,0,0,1,.28.2l2,5.39a.25.25,0,0,0,.28.2h4Z" transform="translate(-714.63 -1614.14)"/><path class="cls-3" d="M759.46,1656.78h-6.79l3.4-8Z" transform="translate(-714.63 -1614.14)"/></g></svg>