<svg id="Layer_1" data-name="Layer 1" xmlns="http://www.w3.org/2000/svg" viewBox="0 0 82.86 82.86"><defs><style>.cls-1{fill:none;stroke:#fff;stroke-miterlimit:10;stroke-width:2px;opacity:0.3;}.cls-2{fill:#f2f2f2;}</style></defs><title>java_ver1</title><circle class="cls-1" cx="41.43" cy="41.43" r="40.43"/><path class="cls-2" d="M766.07,1670.33c0-.15,0-.29,0-.43s0-.41,0-.61a1.07,1.07,0,0,0-.47-.8,1.51,1.51,0,0,0-.65-.23,4.4,4.4,0,0,0-1.23,0,7.61,7.61,0,0,0-1.47.37l-.07,0-.23-1,.17-.07a7.5,7.5,0,0,1,1.85-.51,6.29,6.29,0,0,1,1.47,0,3.28,3.28,0,0,1,1.09.28,1.94,1.94,0,0,1,1.11,1.37,3,3,0,0,1,.08.69q0,2.76,0,5.51s0,.05,0,.08a11.65,11.65,0,0,1-1.26,0l-.13-.83-.09.07a4.37,4.37,0,0,1-1,.66,3.21,3.21,0,0,1-1.36.27,3.16,3.16,0,0,1-1-.17,1.79,1.79,0,0,1-1.22-1.41,2.74,2.74,0,0,1,0-1.34,2.23,2.23,0,0,1,1-1.3,3.91,3.91,0,0,1,1.22-.47,8.05,8.05,0,0,1,1.73-.16Zm0,1h-.62a5.39,5.39,0,0,0-1.07.08,2.11,2.11,0,0,0-.72.26,1,1,0,0,0-.49.65,1.65,1.65,0,0,0,0,.81,1,1,0,0,0,.74.78,1.7,1.7,0,0,0,1,0,3.34,3.34,0,0,0,1.11-.63.19.19,0,0,0,.08-.16c0-.55,0-1.09,0-1.64Z" transform="translate(-714.29 -1613.64)"/><path class="cls-2" d="M753.06,1675H751.8l-.13-.84-.08.06a4.57,4.57,0,0,1-.93.61,3.21,3.21,0,0,1-1.48.32,3.14,3.14,0,0,1-1-.17,1.78,1.78,0,0,1-1.2-1.33,2.75,2.75,0,0,1,0-1.37,2.22,2.22,0,0,1,1-1.34,3.92,3.92,0,0,1,1.22-.47,8,8,0,0,1,1.7-.16h.5a.63.63,0,0,0,0-.07c0-.25,0-.51,0-.76a1.54,1.54,0,0,0-.09-.49,1.06,1.06,0,0,0-.67-.66,2.09,2.09,0,0,0-.6-.12,5.83,5.83,0,0,0-1.95.25l-.6.19c-.08-.32-.16-.65-.24-1l.06,0a7.44,7.44,0,0,1,2-.56,6.58,6.58,0,0,1,1.17-.05,3.65,3.65,0,0,1,1.18.23,2,2,0,0,1,1.28,1.57,3.63,3.63,0,0,1,0,.66q0,2.2,0,4.4,0,.5,0,1S753.06,1675,753.06,1675Zm-1.6-3.66h-.61a5.75,5.75,0,0,0-1,.06,2.28,2.28,0,0,0-.82.27,1.05,1.05,0,0,0-.52.71,1.68,1.68,0,0,0,0,.79,1,1,0,0,0,.73.75,1.63,1.63,0,0,0,.83,0,3.19,3.19,0,0,0,1.27-.68.18.18,0,0,0,.07-.16c0-.55,0-1.09,0-1.64Z" transform="translate(-714.29 -1613.64)"/><path class="cls-2" d="M759.14,1628l.18.24a3.79,3.79,0,0,1,.66,1.67,4.62,4.62,0,0,1-.26,2.23,7.46,7.46,0,0,1-1,1.84,13,13,0,0,1-1.64,1.85c-.49.46-1,.88-1.52,1.3a10.08,10.08,0,0,0-1.57,1.54,5,5,0,0,0-.82,1.41,3.27,3.27,0,0,0-.2,1.31,4.05,4.05,0,0,0,.39,1.48,9,9,0,0,0,.74,1.28l1,1.47a7.36,7.36,0,0,1,.55.95.47.47,0,0,1,0,.13l0,0c-.83-.75-1.65-1.52-2.41-2.35a12.37,12.37,0,0,1-1.17-1.46,5.64,5.64,0,0,1-.73-1.46,3.17,3.17,0,0,1-.15-1.06,2.8,2.8,0,0,1,.44-1.4,7,7,0,0,1,.89-1.12,16.57,16.57,0,0,1,1.67-1.49l1.89-1.5a13.81,13.81,0,0,0,1.63-1.52,6.7,6.7,0,0,0,1.14-1.71,5,5,0,0,0,.41-1.49,5.14,5.14,0,0,0,0-.86,6.18,6.18,0,0,0-.17-1.14l0-.11Z" transform="translate(-714.29 -1613.64)"/><path class="cls-2" d="M756.41,1675l-2.4-7.83h1.75l0,.1c.48,1.55,1,3.1,1.44,4.65.09.29.14.58.21.88l.12.53a.1.1,0,0,0,0,0,29,29,0,0,0,.94-3.06,27.66,27.66,0,0,0,.61-3.15h1.7l-.06.33a34.51,34.51,0,0,1-.89,3.63,28.83,28.83,0,0,1-1.43,3.77.15.15,0,0,1-.16.1h-1.89Z" transform="translate(-714.29 -1613.64)"/><path class="cls-2" d="M748.54,1657.11l-.38,0a6.05,6.05,0,0,0-1.36.28,5.9,5.9,0,0,0-1,.4,3.69,3.69,0,0,0-.36.24.51.51,0,0,0-.11.12.23.23,0,0,0,0,.36,1.25,1.25,0,0,0,.27.16,5.61,5.61,0,0,0,.85.29,12.24,12.24,0,0,0,1.43.29l1.37.17,1.07.09,1.68.09,1.67,0c.7,0,1.41,0,2.11,0s1.31,0,2-.07l1.23-.07,1.19-.09c.44,0,.88-.08,1.32-.13l1.7-.24a14.26,14.26,0,0,0,1.66-.35,4.46,4.46,0,0,0,.92-.34,1.47,1.47,0,0,0,.4-.29.52.52,0,0,0,0-.75l0-.06a1.2,1.2,0,0,1,.54.39.41.41,0,0,1,0,.44,1.15,1.15,0,0,1-.18.25,2.12,2.12,0,0,1-.52.38,7.16,7.16,0,0,1-1.22.52,17.5,17.5,0,0,1-2.27.59c-.48.09-1,.18-1.44.26s-1,.13-1.47.19l-1.35.13-1.37.09q-1.51.09-3,.07c-.73,0-1.47,0-2.2-.05l-1.32-.07-1.21-.09-1.16-.11-1.46-.18-1.07-.15a11.1,11.1,0,0,1-1.48-.28,2.28,2.28,0,0,1-.59-.25,1.1,1.1,0,0,1-.17-.14.43.43,0,0,1-.08-.55,1.25,1.25,0,0,1,.31-.37,4,4,0,0,1,.82-.52,9.32,9.32,0,0,1,2.32-.77,5.81,5.81,0,0,1,1.06-.12,2.2,2.2,0,0,1,.65.08A.64.64,0,0,1,748.54,1657.11Z" transform="translate(-714.29 -1613.64)"/><path class="cls-2" d="M744,1664.41h1.71v.13q0,1.68,0,3.35,0,2.81,0,5.61a11.67,11.67,0,0,1-.06,1.26,3.36,3.36,0,0,1-.52,1.56,3.76,3.76,0,0,1-1,1,4.51,4.51,0,0,1-1,.51l-.08,0-.79-.93.09-.05a3.74,3.74,0,0,0,1-.77,2.25,2.25,0,0,0,.56-1.24,8.5,8.5,0,0,0,.07-1.14q0-4.57,0-9.15S744,1664.47,744,1664.41Z" transform="translate(-714.29 -1613.64)"/><path class="cls-2" d="M756.92,1647.91c.16-.19.32-.37.47-.56a2.68,2.68,0,0,0,.45-.92,2.05,2.05,0,0,0-.21-1.59,3.29,3.29,0,0,0-.39-.53,7.29,7.29,0,0,1-1-1.49,4.25,4.25,0,0,1-.43-1.36,3.33,3.33,0,0,1,.25-1.75,4.8,4.8,0,0,1,1.09-1.54,9.3,9.3,0,0,1,1.87-1.38,17,17,0,0,1,2.94-1.33c.44-.15.88-.28,1.32-.42h.07l-.12.07c-.9.53-1.79,1.08-2.65,1.68a14,14,0,0,0-1.64,1.32,5.25,5.25,0,0,0-.86,1,2.48,2.48,0,0,0-.34.82,2,2,0,0,0,.12,1.13,4.49,4.49,0,0,0,.51.94c.24.35.48.69.72,1a2.87,2.87,0,0,1,.48,1,2.26,2.26,0,0,1-.17,1.53,4,4,0,0,1-.85,1.17,7.51,7.51,0,0,1-1.56,1.18Z" transform="translate(-714.29 -1613.64)"/><path class="cls-2" d="M751.15,1654.48l-.09.08a1.41,1.41,0,0,0-.17.19.26.26,0,0,0,.06.38,1.11,1.11,0,0,0,.41.19,4.47,4.47,0,0,0,.77.14l.91.09c.33,0,.66.06,1,.07s.93,0,1.4,0,.76,0,1.13-.07.88-.1,1.31-.17l1.22-.21a.33.33,0,0,1,.25,0,12.13,12.13,0,0,0,1.63.8l.13.05-.08,0a14.36,14.36,0,0,1-2.67.82q-.75.16-1.52.24a15.75,15.75,0,0,1-2.12.09c-.32,0-.64,0-1,0a10.82,10.82,0,0,1-2.83-.56,3.53,3.53,0,0,1-1-.49,1.13,1.13,0,0,1-.3-.32.51.51,0,0,1,0-.59,1.15,1.15,0,0,1,.32-.3,3.5,3.5,0,0,1,.82-.38l.33-.11Z" transform="translate(-714.29 -1613.64)"/><path class="cls-2" d="M751.77,1646.84l-.48.13a17.6,17.6,0,0,0-2,.65,3.75,3.75,0,0,0-.66.32,1.37,1.37,0,0,0-.24.2.22.22,0,0,0,0,.37,1.5,1.5,0,0,0,.52.2,7.55,7.55,0,0,0,1.06.17,32.33,32.33,0,0,0,3.65.09l1.71-.06,1.55-.09.93-.07,1.15-.11,1.11-.13,1.1-.15,1.12-.17.56-.09h.07l-.09,0a10.51,10.51,0,0,0-1.36.74l-.12,0a20.46,20.46,0,0,1-2,.41c-.52.08-1,.15-1.57.22s-.93.09-1.39.13l-1.44.09c-.9,0-1.81.06-2.71,0l-1.16,0-1.31-.07-1.16-.11a10.48,10.48,0,0,1-2-.38,3.29,3.29,0,0,1-.45-.18.94.94,0,0,1-.24-.17.27.27,0,0,1,0-.39,1,1,0,0,1,.25-.22c.2-.12.41-.23.63-.32a12.84,12.84,0,0,1,2.7-.89,10.52,10.52,0,0,1,2.06-.24h.22Z" transform="translate(-714.29 -1613.64)"/><path class="cls-2" d="M750.36,1650.71l-.22.23a.87.87,0,0,0-.19.31.38.38,0,0,0,.11.43.92.92,0,0,0,.3.17,3.08,3.08,0,0,0,.76.16l1,.1c.5,0,1,.07,1.49.08s1.11,0,1.67,0c.32,0,.63,0,1-.05l1-.09,1.16-.15,1.4-.23.4-.08a.15.15,0,0,1,.15,0,4,4,0,0,0,1.28.78l.06,0-.09,0a23.87,23.87,0,0,1-2.57.59c-.51.09-1,.16-1.52.22s-1,.09-1.44.13a22.66,22.66,0,0,1-2.33.05c-.51,0-1,0-1.52-.09a13,13,0,0,1-2.05-.35,4.36,4.36,0,0,1-1.08-.41,2.84,2.84,0,0,1-.31-.22.62.62,0,0,1-.11-.12.47.47,0,0,1,0-.58,1.56,1.56,0,0,1,.26-.27,2.13,2.13,0,0,1,.53-.33l.83-.34Z" transform="translate(-714.29 -1613.64)"/><path class="cls-2" d="M747.67,1661.18l1.06.15,1,.11,1.08.09.69,0,1.09,0c.58,0,1.17,0,1.75,0q1.26,0,2.51,0c.54,0,1.08-.06,1.62-.09l1.31-.11,1.64-.19q1.31-.17,2.6-.45a16.38,16.38,0,0,0,2.75-.81,5.63,5.63,0,0,0,1-.54,2.4,2.4,0,0,0,.47-.42.83.83,0,0,1,0,.08,1.64,1.64,0,0,1-.51.89,3.92,3.92,0,0,1-1,.69,10.05,10.05,0,0,1-1.85.65,19.2,19.2,0,0,1-2.16.43L761,1662c-.44,0-.87.08-1.31.11-1.23.09-2.47.13-3.7.13-.85,0-1.7,0-2.54-.05l-1.51-.09-1.3-.13a13.55,13.55,0,0,1-2.23-.42,3.66,3.66,0,0,1-.63-.24l-.11-.06Z" transform="translate(-714.29 -1613.64)"/><path class="cls-2" d="M762.88,1653.2a.56.56,0,0,1,.2-.21,12.9,12.9,0,0,0,1.82-1.13,6.83,6.83,0,0,0,1.25-1.19,3.37,3.37,0,0,0,.64-1.2,1.94,1.94,0,0,0-.92-2.25,2.08,2.08,0,0,0-1.36-.3,7.67,7.67,0,0,0-.75.17l-.13,0,.05-.07a1.18,1.18,0,0,1,.53-.36,3.77,3.77,0,0,1,1.53-.2,2.85,2.85,0,0,1,1.94.91,2.18,2.18,0,0,1,.58,1.34,2.48,2.48,0,0,1-.32,1.39,4,4,0,0,1-.9,1.1,7.34,7.34,0,0,1-1.65,1.07,13.79,13.79,0,0,1-2.46.89Z" transform="translate(-714.29 -1613.64)"/><path class="cls-2" d="M768.84,1667.82c-.06,0-.1,0-.11,0l-.12-.31a.11.11,0,0,0,0-.06v.42h-.12v-.63h.12a.07.07,0,0,1,.08.06l.15.38.08-.2.06-.16c0-.08,0-.08.12-.08h.09v.62H769v-.42a.5.5,0,0,0-.11.21Z" transform="translate(-714.29 -1613.64)"/><path class="cls-2" d="M767.83,1667.2h.5v.1h-.19v.52H768v-.51h-.18Z" transform="translate(-714.29 -1613.64)"/></svg>