<svg id="Layer_1" data-name="Layer 1" xmlns="http://www.w3.org/2000/svg" viewBox="0 0 82.86 82.86"><defs><style>.cls-1{fill:none;stroke:#fff;stroke-miterlimit:10;stroke-width:2px;opacity:0.3;}.cls-2{opacity:0.85;}.cls-3{fill:#f2f2f2;}</style></defs><title>less_ver1</title><circle class="cls-1" cx="41.43" cy="41.43" r="40.43"/><g class="cls-2"><path class="cls-3" d="M731.66,1655a1.92,1.92,0,0,0,2.2-2.21c0-1.68-.2-3.36-.14-5a2.17,2.17,0,0,1,2.33-2.35c2-.12,4.09-.08,6.14-.1.61,0,.53.45.53.84q0,4.21,0,8.42c0,1.57,0,3.14,0,4.71,0,.56.08,1.06.8,1.17.16,0,.34.33.38.53.13.63.2,1.27.29,1.9a3.27,3.27,0,0,1-4.9-1.91,9.12,9.12,0,0,1-.2-2c0-3.56,0-7.13,0-10.69,0-.3,0-.61,0-1a12.73,12.73,0,0,0-1.7,0c-.68.09-.88.64-.88,1.25,0,1.18,0,2.36.06,3.53,0,.39,0,.79,0,1.18a2.56,2.56,0,0,1-2,2.86c1.79.48,2.06,1.65,2,3s-.08,2.64-.09,4c0,1.65.15,1.83,1.79,2v1.66a20,20,0,0,1-2.68,0,2.11,2.11,0,0,1-1.87-2.17c-.07-1.34,0-2.68.06-4,0-.39.08-.78.08-1.17,0-1.41-.73-2.12-2.2-2.13Z" transform="translate(-714.62 -1613.49)"/><path class="cls-3" d="M775.62,1667l-.15-1.92.51-.09c1.08-.14,1.36-.41,1.36-1.52,0-1.4-.07-2.8-.08-4.21s.08-2.69,2.06-3.2c-2.09-.64-2.08-2.09-2.06-3.55,0-1.21.08-2.41.09-3.62,0-1.38-.13-1.51-1.46-1.74a2,2,0,0,1-.3-.1c-.24-1.75-.2-1.8,1.48-1.73,2.23.09,3,.73,3.13,3a27.91,27.91,0,0,1-.12,3.35c0,.42-.08.84-.08,1.26a1.91,1.91,0,0,0,2.2,2.12v2.19a1.93,1.93,0,0,0-2.2,2.2c0,.39.07.78.08,1.17,0,1.34.13,2.68.05,4a2.2,2.2,0,0,1-2,2.2,2.77,2.77,0,0,0-.45.18Z" transform="translate(-714.62 -1613.49)"/><path class="cls-3" d="M747.11,1657.83c.22,2.57,2.52,3.35,5.91,2l1.18,2.06a7.33,7.33,0,0,1-7,.9,5.68,5.68,0,0,1-3.6-5.32,6.59,6.59,0,0,1,1.48-5.1,5.6,5.6,0,0,1,6-1.83c2.08.55,3.4,2.47,3.59,5.07.15,2.14.15,2.14-2,2.14H748C747.71,1657.78,747.41,1657.81,747.11,1657.83Zm4.44-2.31c.1-1.53-.68-2.48-2-2.5a2.35,2.35,0,0,0-2.34,2.5Z" transform="translate(-714.62 -1613.49)"/><path class="cls-3" d="M755.31,1661.73l1.41-2.11c1,.37,2,.74,2.91,1a1.32,1.32,0,0,0,.9,0c.41-.21,1-.5,1.06-.86s-.33-.85-.66-1.09a10.3,10.3,0,0,0-1.66-.78,12.74,12.74,0,0,1-1.79-.91,3.4,3.4,0,0,1,.28-5.9,6.38,6.38,0,0,1,7.1.94l-1.52,2.05a4.11,4.11,0,0,0-.88-.47,11.43,11.43,0,0,0-2.34-.41c-.28,0-.74.44-.82.76a1.2,1.2,0,0,0,.47.95,6.15,6.15,0,0,0,1.36.64c.69.3,1.42.54,2.08.89a3.25,3.25,0,0,1,1.84,3.15,3.5,3.5,0,0,1-2,3.18A7.31,7.31,0,0,1,755.31,1661.73Z" transform="translate(-714.62 -1613.49)"/><path class="cls-3" d="M765.32,1661.69l1.45-2.12c.93.37,1.8.72,2.68,1.06a1.39,1.39,0,0,0,.58.07c.67-.05,1.44,0,1.63-.88s-.51-1.12-1.08-1.39c-.76-.36-1.57-.62-2.32-1-1.71-.85-2.53-2.16-2.31-3.63a3.9,3.9,0,0,1,3.37-3.28,6.8,6.8,0,0,1,5.6,1.45l-1.57,2.11a3.89,3.89,0,0,0-.84-.46,11.71,11.71,0,0,0-2.34-.44,1.17,1.17,0,0,0-.87.73,1.33,1.33,0,0,0,.5,1,5.31,5.31,0,0,0,1.28.62,19.3,19.3,0,0,1,2.22,1,3.53,3.53,0,0,1,.19,5.94C771.38,1664,767.25,1663.65,765.32,1661.69Z" transform="translate(-714.62 -1613.49)"/></g></svg>