<svg id="Layer_1" data-name="Layer 1" xmlns="http://www.w3.org/2000/svg" viewBox="0 0 82.86 82.86"><defs><style>.cls-1,.cls-2{fill:#fff;}.cls-1{opacity:0.3;}</style></defs><title>mySql_ver1</title><path class="cls-1" d="M755.39,1696.85a41.43,41.43,0,1,1,41.43-41.43A41.48,41.48,0,0,1,755.39,1696.85Zm0-80.86a39.43,39.43,0,1,0,39.43,39.43A39.48,39.48,0,0,0,755.39,1616Z" transform="translate(-713.96 -1613.99)"/><path class="cls-2" d="M726.51,1663.06c0-.59.07-1.18.11-1.77.12-1.83.24-3.67.38-5.5.08-1.05.23-2.1.33-3.15,0-.21.09-.27.29-.26.62,0,1.24,0,1.87,0,.22,0,.3.07.37.27q1.3,4,2.61,8l.08.22c0-.1.07-.15.09-.22.87-2.63,1.75-5.26,2.6-7.89a.45.45,0,0,1,.53-.37c.62,0,1.24,0,1.89,0,.44,3.85.78,7.68.89,11.56h-1.93a88.32,88.32,0,0,0-.62-9.07l-.41,1.28q-1.2,3.76-2.39,7.53c-.07.22-.17.31-.41.3a6.23,6.23,0,0,0-.89,0c-.22,0-.3-.08-.37-.27q-1.17-3.71-2.35-7.42c-.15-.47-.3-.93-.48-1.39-.26,3-.38,6-.43,9.07h-1.76Z" transform="translate(-713.96 -1613.99)"/><path class="cls-2" d="M757.37,1632.87a5.79,5.79,0,0,1,2.08.81.9.9,0,0,1,.21.14,1.64,1.64,0,0,0,1.27.48,5.15,5.15,0,0,1,2.42.75,13.82,13.82,0,0,1,5,4.95c.39.67.65,1.41,1,2.12.43.92.88,1.84,1.32,2.76a1,1,0,0,0,.61.56,12.26,12.26,0,0,1,4,2.54,6.12,6.12,0,0,1,.57.68c.12.14.06.22-.1.25l-1.22.27-1.65.32a2.42,2.42,0,0,0,.34.42,7.53,7.53,0,0,0,.85.58,6.26,6.26,0,0,1,1.8,1.55l.69.89s0,0,0,.14l-.58-.48a12.28,12.28,0,0,0-1.9-1.14,10.86,10.86,0,0,1-1.7-1.19,4,4,0,0,1-.58-.87c-.16-.23,0-.33.17-.41a6.7,6.7,0,0,1,2.53-.48H775c-.09-.12-.12-.21-.19-.25a16.36,16.36,0,0,0-2.74-1.74c-.4-.16-.8-.29-1.21-.42a1.34,1.34,0,0,1-.85-.67c-.11-.22-.26-.43-.36-.66-.55-1.21-1.07-2.43-1.63-3.63a12,12,0,0,0-4.17-4.87c-.21-.14-.42-.27-.63-.4a5.56,5.56,0,0,0-3.1-.91.86.86,0,0,1-.62-.25,5.8,5.8,0,0,0-2-1.06.85.85,0,0,0-.27,0,.41.41,0,0,0-.43.57,2.7,2.7,0,0,0,.44.8,8.15,8.15,0,0,1,1.68,3.26,4.3,4.3,0,0,0,1.13,2,.62.62,0,0,1,.18.64c-.08.29-.16.57-.26.85a5.72,5.72,0,0,0,.21,4.41.83.83,0,0,0,.63.55c.17-1.08.12-2.24,1.11-3a15.9,15.9,0,0,0,3.3,5.46,2.75,2.75,0,0,1-.26-.18l-1.45-1.3a5.4,5.4,0,0,1-1.39-2,.76.76,0,0,0-.24-.32l-.21,1.3a.85.85,0,0,1-.58.78.9.9,0,0,1-1-.29,4,4,0,0,1-1-2.27,6.87,6.87,0,0,1,.29-3.38,1.19,1.19,0,0,0-.21-1.3,6.63,6.63,0,0,1-1.13-2.55,6.21,6.21,0,0,0-1.19-2.11,5.56,5.56,0,0,1-.62-1,1.16,1.16,0,0,1,.88-1.68s0,0,.07,0Z" transform="translate(-713.96 -1613.99)"/><path class="cls-2" d="M763.6,1663.19l2.11,1-.74,1.3-1.53-.89c-.34-.2-.67-.41-1-.58a.77.77,0,0,0-.46-.07,6.16,6.16,0,0,1-2.65,0,3.52,3.52,0,0,1-2.62-2.37,9.84,9.84,0,0,1-.47-4,7.9,7.9,0,0,1,.58-2.73,4.23,4.23,0,0,1,4.5-2.66,5.82,5.82,0,0,1,1.67.36,3.34,3.34,0,0,1,2,2.14,9.78,9.78,0,0,1-.07,6.65A4.18,4.18,0,0,1,763.6,1663.19Zm-.06-5.09c0-.39-.06-.92-.11-1.45a6.57,6.57,0,0,0-.16-.85,3,3,0,0,0-.82-1.58,2.41,2.41,0,0,0-3.67.57,4.25,4.25,0,0,0-.41,1.06,10,10,0,0,0-.14,3.62,7.93,7.93,0,0,0,.42,1.77,2.39,2.39,0,0,0,4.5-.28A9.08,9.08,0,0,0,763.54,1658.1Z" transform="translate(-713.96 -1613.99)"/><path class="cls-2" d="M754.28,1654.07a5.73,5.73,0,0,0-2.28-.47,2,2,0,0,0-1.16.31,1.4,1.4,0,0,0-.38,2,3.49,3.49,0,0,0,.92.82c.72.45,1.48.85,2.22,1.27.17.1.34.19.5.3a2.79,2.79,0,0,1,1.26,2.86,3,3,0,0,1-1.94,2.52,5.29,5.29,0,0,1-4.9-.47l-.28-.18-.08-.06.48-1,.28.12a5.05,5.05,0,0,0,2.8.51,1.74,1.74,0,0,0,1.64-1.91,1.65,1.65,0,0,0-.73-1.14c-.46-.33-1-.61-1.44-.89s-.9-.51-1.35-.77a2.85,2.85,0,0,1-1.54-3,3,3,0,0,1,2.31-2.59,5.15,5.15,0,0,1,3.92.58c.15.08.2.16.11.32S754.41,1653.78,754.28,1654.07Z" transform="translate(-713.96 -1613.99)"/><path class="cls-2" d="M739.33,1665.68a9.79,9.79,0,0,0,1.29,0,1.73,1.73,0,0,0,1.44-2c-.29-1-.56-2-.86-2.93-.52-1.67-1.07-3.34-1.6-5,0-.08,0-.16-.08-.28h1.15c.73,0,.73,0,.95.71.5,1.66,1,3.31,1.5,5,.13.44.19.9.3,1.42.19-.55.37-1.05.52-1.56a33,33,0,0,0,1.12-5.3c0-.21.1-.26.29-.26.51,0,1,0,1.57,0,0,.26-.09.49-.13.72a31.6,31.6,0,0,1-2,6.84,9.43,9.43,0,0,1-1.9,2.92,3.18,3.18,0,0,1-2.17,1.07,5.56,5.56,0,0,1-1.27-.24s-.1-.11-.11-.17C739.32,1666.29,739.33,1666,739.33,1665.68Z" transform="translate(-713.96 -1613.99)"/><path class="cls-2" d="M769,1662.54h3.62v1.4h-5.45c0-.1,0-.2,0-.3q0-5.48,0-11c0-.23.05-.31.29-.3.42,0,.84,0,1.25,0,.24,0,.31.06.31.31,0,2.6,0,5.2,0,7.79q0,.88,0,1.75C769,1662.32,769,1662.41,769,1662.54Z" transform="translate(-713.96 -1613.99)"/><path class="cls-2" d="M775.79,1663.49a5.44,5.44,0,0,0,.23-.62c.07-.3.24-.39.54-.29v1.36l-.27,0v-.88h-.07c-.09.24-.17.48-.27.71,0,.07-.11.12-.17.18s-.14-.11-.17-.18a5.49,5.49,0,0,0-.35-.76v.91l-.07.05c-.07-.05-.19-.1-.19-.16,0-.41,0-.83,0-1.24.3-.11.46,0,.54.26A6.67,6.67,0,0,0,775.79,1663.49Z" transform="translate(-713.96 -1613.99)"/><path class="cls-2" d="M761,1637.63l-.76-1.19a.67.67,0,0,1,1,.36A.61.61,0,0,1,761,1637.63Z" transform="translate(-713.96 -1613.99)"/><path class="cls-2" d="M774,1664v-1.16a1.63,1.63,0,0,1-.29,0s-.08-.07-.12-.11.1-.11.15-.11c.27,0,.54,0,.8,0,.06,0,.11.07.16.1a.78.78,0,0,1-.17.13.76.76,0,0,1-.21,0v1.13Z" transform="translate(-713.96 -1613.99)"/></svg>