<svg id="Layer_1" data-name="Layer 1" xmlns="http://www.w3.org/2000/svg" viewBox="0 0 1599.3 85.46"><defs><style>.cls-1{fill:none;stroke:#b4a7d2;stroke-miterlimit:10;stroke-width:2px;}.cls-2{fill:#fff;}.cls-3{fill:#b4a7d2;}</style></defs><title>ornament_ver1</title><line class="cls-1" x1="8.18" y1="83.52" x2="115.93" y2="2"/><line class="cls-1" x1="229.5" y1="83.18" x2="121.75" y2="1.66"/><circle class="cls-2" cx="290.5" cy="1865.8" r="4.53" transform="translate(-1405.68 -1107.38) rotate(-45)"/><path class="cls-3" d="M293.7,1862.6l1.41-1.41a6.54,6.54,0,0,0-9.24,0l1.41,1.41A4.53,4.53,0,0,1,293.7,1862.6Z" transform="translate(-171.44 -1859.28)"/><circle class="cls-2" cx="177.3" cy="1937.69" r="4.53" transform="translate(-1009.92 -1581.18) rotate(-26.24)"/><path class="cls-3" d="M173.24,1939.69l-1.79.88a6.54,6.54,0,0,0,8.75,3l-.88-1.79A4.53,4.53,0,0,1,173.24,1939.69Z" transform="translate(-171.44 -1859.28)"/><circle class="cls-2" cx="404.06" cy="1937.9" r="4.53" transform="translate(-1444.28 -973.37) rotate(-46.12)"/><path class="cls-3" d="M400.92,1941.16l-1.39,1.44a6.54,6.54,0,0,0,9.23-.18l-1.44-1.39A4.53,4.53,0,0,1,400.92,1941.16Z" transform="translate(-171.44 -1859.28)"/><line class="cls-1" x1="235.29" y1="83.52" x2="343.04" y2="2"/><line class="cls-1" x1="456.62" y1="83.18" x2="348.87" y2="1.66"/><circle class="cls-2" cx="517.61" cy="1865.8" r="4.53" transform="translate(-1339.16 -946.79) rotate(-45)"/><path class="cls-3" d="M520.82,1862.6l1.41-1.41a6.54,6.54,0,0,0-9.24,0l1.41,1.41A4.53,4.53,0,0,1,520.82,1862.6Z" transform="translate(-171.44 -1859.28)"/><circle class="cls-2" cx="631.18" cy="1937.9" r="4.53" transform="translate(-1374.59 -809.67) rotate(-46.12)"/><path class="cls-3" d="M628,1941.16l-1.39,1.44a6.54,6.54,0,0,0,9.23-.18l-1.44-1.39A4.53,4.53,0,0,1,628,1941.16Z" transform="translate(-171.44 -1859.28)"/><line class="cls-1" x1="462.39" y1="83.52" x2="570.14" y2="2"/><line class="cls-1" x1="683.71" y1="83.18" x2="575.96" y2="1.66"/><circle class="cls-2" cx="744.71" cy="1865.8" r="4.53" transform="translate(-1272.64 -786.21) rotate(-45)"/><path class="cls-3" d="M747.91,1862.6l1.41-1.41a6.54,6.54,0,0,0-9.24,0l1.41,1.41A4.53,4.53,0,0,1,747.91,1862.6Z" transform="translate(-171.44 -1859.28)"/><circle class="cls-2" cx="858.27" cy="1937.9" r="4.53" transform="translate(-1304.91 -645.98) rotate(-46.12)"/><path class="cls-3" d="M855.13,1941.16l-1.39,1.44a6.54,6.54,0,0,0,9.23-.18l-1.44-1.39A4.53,4.53,0,0,1,855.13,1941.16Z" transform="translate(-171.44 -1859.28)"/><line class="cls-1" x1="689.5" y1="83.52" x2="797.25" y2="2"/><line class="cls-1" x1="910.83" y1="83.18" x2="803.08" y2="1.66"/><circle class="cls-2" cx="971.82" cy="1865.8" r="4.53" transform="translate(-1206.13 -625.61) rotate(-45)"/><path class="cls-3" d="M975,1862.6l1.41-1.41a6.54,6.54,0,0,0-9.24,0l1.41,1.41A4.53,4.53,0,0,1,975,1862.6Z" transform="translate(-171.44 -1859.28)"/><circle class="cls-2" cx="1085.39" cy="1937.9" r="4.53" transform="translate(-1235.22 -482.28) rotate(-46.12)"/><path class="cls-3" d="M1082.25,1941.16l-1.39,1.44a6.54,6.54,0,0,0,9.23-.18l-1.44-1.39A4.53,4.53,0,0,1,1082.25,1941.16Z" transform="translate(-171.44 -1859.28)"/><line class="cls-1" x1="915.94" y1="83.83" x2="1023.69" y2="2.31"/><line class="cls-1" x1="1137.26" y1="83.5" x2="1029.51" y2="1.98"/><circle class="cls-2" cx="1198.26" cy="1866.12" r="4.53" transform="translate(-1140.03 -465.41) rotate(-45)"/><path class="cls-3" d="M1201.46,1862.92l1.41-1.41a6.54,6.54,0,0,0-9.24,0l1.41,1.41A4.53,4.53,0,0,1,1201.46,1862.92Z" transform="translate(-171.44 -1859.28)"/><circle class="cls-2" cx="1311.82" cy="1938.21" r="4.53" transform="translate(-1165.96 -318.97) rotate(-46.12)"/><path class="cls-3" d="M1308.68,1941.48l-1.39,1.44a6.54,6.54,0,0,0,9.23-.18l-1.44-1.39A4.53,4.53,0,0,1,1308.68,1941.48Z" transform="translate(-171.44 -1859.28)"/><line class="cls-1" x1="1143.04" y1="83.83" x2="1250.79" y2="2.31"/><line class="cls-1" x1="1364.36" y1="83.5" x2="1256.61" y2="1.98"/><circle class="cls-2" cx="1425.36" cy="1866.12" r="4.53" transform="translate(-1073.51 -304.82) rotate(-45)"/><path class="cls-3" d="M1428.56,1862.92l1.41-1.41a6.54,6.54,0,0,0-9.24,0l1.41,1.41A4.53,4.53,0,0,1,1428.56,1862.92Z" transform="translate(-171.44 -1859.28)"/><circle class="cls-2" cx="1538.92" cy="1938.21" r="4.53" transform="matrix(0.69, -0.72, 0.72, 0.69, -1096.28, -155.28)"/><path class="cls-3" d="M1535.78,1941.48l-1.39,1.44a6.54,6.54,0,0,0,9.23-.18l-1.44-1.39A4.53,4.53,0,0,1,1535.78,1941.48Z" transform="translate(-171.44 -1859.28)"/><line class="cls-1" x1="1370.15" y1="83.83" x2="1477.9" y2="2.31"/><line class="cls-1" x1="1591.47" y1="83.5" x2="1483.72" y2="1.98"/><circle class="cls-2" cx="1652.47" cy="1866.12" r="4.53" transform="translate(-1006.99 -144.23) rotate(-45)"/><path class="cls-3" d="M1655.67,1862.92l1.41-1.41a6.54,6.54,0,0,0-9.24,0l1.41,1.41A4.53,4.53,0,0,1,1655.67,1862.92Z" transform="translate(-171.44 -1859.28)"/><circle class="cls-2" cx="1766.03" cy="1938.21" r="4.53" transform="matrix(0.69, -0.72, 0.72, 0.69, -1026.59, 8.43)"/><path class="cls-3" d="M1762.89,1941.48l-1.39,1.44a6.54,6.54,0,0,0,9.23-.18l-1.44-1.39A4.53,4.53,0,0,1,1762.89,1941.48Z" transform="translate(-171.44 -1859.28)"/></svg>