<svg id="Layer_2" data-name="Layer 2" xmlns="http://www.w3.org/2000/svg" viewBox="0 0 2371.34 158.96"><defs><style>.cls-1{fill:none;}.cls-1,.cls-3{stroke:#b4a7d2;stroke-miterlimit:10;stroke-width:2px;}.cls-2,.cls-3{fill:#fff;}.cls-4{fill:#b4a7d2;}</style></defs><title>title_ver1</title><line class="cls-1" x1="1000.76" y1="81.05" x2="1000.76" y2="6.06"/><line class="cls-1" x1="1029.3" y1="152.41" x2="1029.3" y2="6.07"/><line class="cls-1" x1="971.59" y1="111.81" x2="902.14" y2="74.29"/><line class="cls-1" x1="1063.57" y1="152.41" x2="1063.57" y2="6.07"/><line class="cls-1" x1="1126.32" y1="152.41" x2="1126.32" y2="6.07"/><line class="cls-1" x1="1154.71" y1="152.68" x2="1154.71" y2="5.87"/><line class="cls-1" x1="1211.2" y1="152.87" x2="1211.2" y2="6.06"/><line class="cls-1" x1="1265.07" y1="152.87" x2="1265.07" y2="6.06"/><line class="cls-1" x1="1388.69" y1="152.87" x2="1388.69" y2="6.06"/><line class="cls-1" x1="1295.54" y1="152.87" x2="1295.54" y2="6.06"/><line class="cls-1" x1="1304.96" y1="156.36" x2="1359.05" y2="92.33"/><line class="cls-1" x1="1325.21" y1="67.06" x2="1378.22" y2="4.14"/><line class="cls-1" x1="1006.29" y1="1" x2="1023.95" y2="1"/><line class="cls-1" y1="73.81" x2="900" y2="73.81"/><line class="cls-1" x1="1471.34" y1="73.73" x2="2371.34" y2="73.83"/><path class="cls-2" d="M692.41,1587a3.27,3.27,0,0,1,.92,2.42v35.36q0,9.09-4.67,13.72t-13.84,4.63q-8.92,0-14.84-3.5-3-1.67-3-3.84a2.89,2.89,0,0,1,.63-1.92,2,2,0,0,1,1.63-.75,8.09,8.09,0,0,1,3,1.17,38.56,38.56,0,0,0,5.75,2.42,22,22,0,0,0,6.75.92q5.92,0,8.92-3.13t3-9.13v-7.17a12.71,12.71,0,0,1-5.38,6,16.85,16.85,0,0,1-8.55,2.08,17.9,17.9,0,0,1-9.46-2.5,16.91,16.91,0,0,1-6.42-7.09,25.6,25.6,0,0,1,0-21.18,16.92,16.92,0,0,1,6.42-7.09,17.9,17.9,0,0,1,9.46-2.5,16.48,16.48,0,0,1,8.42,2.08,13.35,13.35,0,0,1,5.42,5.92v-4.5a3.36,3.36,0,0,1,.88-2.42,3.24,3.24,0,0,1,2.46-.92A3.38,3.38,0,0,1,692.41,1587Zm-9.17,29.81q3.33-3.88,3.34-10.72t-3.29-10.63q-3.3-3.88-9.21-3.88a11.68,11.68,0,0,0-9.3,3.88q-3.38,3.88-3.38,10.63t3.38,10.72a11.69,11.69,0,0,0,9.3,3.88A11.46,11.46,0,0,0,683.23,1616.84Z" transform="translate(308.43 -1527.83)"/><path class="cls-2" d="M738.86,1588.94a3,3,0,0,1-.75,2.13,4,4,0,0,1-2.58,1l-2.5.25q-5.59.5-8.3,4a12.8,12.8,0,0,0-2.71,8.13v20.26a3.21,3.21,0,0,1-.92,2.5,3.46,3.46,0,0,1-2.42.83,3.51,3.51,0,0,1-2.46-.88,3.16,3.16,0,0,1-1-2.46v-35.19a3.1,3.1,0,0,1,1-2.46,3.55,3.55,0,0,1,2.42-.87,3.07,3.07,0,0,1,3.17,3.25V1594a12.66,12.66,0,0,1,5-5.59,16.79,16.79,0,0,1,7.38-2.25l1.17-.08Q738.86,1585.86,738.86,1588.94Z" transform="translate(308.43 -1527.83)"/><path class="cls-2" d="M755.08,1627.09a3.16,3.16,0,0,1-1-2.46v-35.19a3.16,3.16,0,0,1,1-2.46,3.51,3.51,0,0,1,2.46-.87,3.36,3.36,0,0,1,2.42.88,3.25,3.25,0,0,1,.92,2.46v35.19a3.21,3.21,0,0,1-.92,2.5,3.46,3.46,0,0,1-2.42.83A3.51,3.51,0,0,1,755.08,1627.09Z" transform="translate(308.43 -1527.83)"/><path class="cls-2" d="M818,1569.26a3.17,3.17,0,0,1,.92,2.33v53a3.27,3.27,0,0,1-.92,2.42,3.39,3.39,0,0,1-2.5.92,3.24,3.24,0,0,1-2.46-.92,3.36,3.36,0,0,1-.88-2.42v-4.5a13.4,13.4,0,0,1-5.38,5.92,16.06,16.06,0,0,1-8.3,2.08,16.83,16.83,0,0,1-9.42-2.67,17.6,17.6,0,0,1-6.34-7.46,25.93,25.93,0,0,1-2.25-11.13,25.44,25.44,0,0,1,2.25-11,16.72,16.72,0,0,1,15.76-9.92,16.08,16.08,0,0,1,8.3,2.08,13.42,13.42,0,0,1,5.38,5.92V1571.6a3.21,3.21,0,0,1,.88-2.38,3.32,3.32,0,0,1,2.46-.88A3.39,3.39,0,0,1,818,1569.26Zm-9,49.24q3.21-4,3.21-11.47t-3.21-11.42q-3.21-4-9.13-4a11.27,11.27,0,0,0-9.21,4q-3.3,4-3.29,11.26,0,7.42,3.29,11.55a11.12,11.12,0,0,0,9.21,4.13Q805.73,1622.55,808.95,1618.5Z" transform="translate(308.43 -1527.83)"/><path class="cls-2" d="M874.16,1587a3.36,3.36,0,0,1,.88,2.42v35.27a3.09,3.09,0,0,1-3.34,3.25,3.21,3.21,0,0,1-2.38-.88,3.1,3.1,0,0,1-.88-2.29v-4.17a13.22,13.22,0,0,1-5.38,5.59,15.81,15.81,0,0,1-7.8,1.92q-7.26,0-10.92-4t-3.67-12v-22.68a3.27,3.27,0,0,1,.92-2.42,3.38,3.38,0,0,1,2.5-.92,3.24,3.24,0,0,1,2.46.92,3.36,3.36,0,0,1,.88,2.42V1612q0,5.42,2.17,8t6.84,2.54A11.24,11.24,0,0,0,865,1619a12.79,12.79,0,0,0,3.25-9.13v-20.43a3.27,3.27,0,0,1,.92-2.42,3.38,3.38,0,0,1,2.5-.92A3.24,3.24,0,0,1,874.16,1587Z" transform="translate(308.43 -1527.83)"/><path class="cls-2" d="M898,1627.09a3.16,3.16,0,0,1-1-2.46v-53a3.16,3.16,0,0,1,1-2.46,3.51,3.51,0,0,1,2.46-.88,3.39,3.39,0,0,1,2.38.88,3.17,3.17,0,0,1,1,2.46v53a3.16,3.16,0,0,1-1,2.46,3.39,3.39,0,0,1-2.38.88A3.51,3.51,0,0,1,898,1627.09Z" transform="translate(308.43 -1527.83)"/><path class="cls-2" d="M957.67,1602v22.68a3.36,3.36,0,0,1-.88,2.42,3.14,3.14,0,0,1-2.38.92,3.15,3.15,0,0,1-3.34-3.34v-4a11.92,11.92,0,0,1-4.84,5.55,14.25,14.25,0,0,1-7.5,2,16.43,16.43,0,0,1-7.21-1.58,12.86,12.86,0,0,1-5.21-4.42,10.91,10.91,0,0,1-1.92-6.25q0-4.58,2.33-7.13t7.67-3.67a75.76,75.76,0,0,1,14.84-1.13h1.83v-2.75q0-5-2-7.34t-6.63-2.33a24.49,24.49,0,0,0-11.51,3.09,7.6,7.6,0,0,1-3.17,1.42,2.14,2.14,0,0,1-1.67-.75,2.77,2.77,0,0,1-.67-1.92,3.15,3.15,0,0,1,.71-2,8.29,8.29,0,0,1,2.29-1.79,26.85,26.85,0,0,1,6.63-2.63,29.42,29.42,0,0,1,7.38-1Q957.67,1585.94,957.67,1602Zm-9.8,17.47a12.13,12.13,0,0,0,3.21-8.71v-2.42h-1.5a74.6,74.6,0,0,0-11.17.63,10.86,10.86,0,0,0-5.46,2.08,5.47,5.47,0,0,0-1.63,4.29,6.91,6.91,0,0,0,2.38,5.38,8.61,8.61,0,0,0,6,2.13A10.84,10.84,0,0,0,947.87,1619.42Z" transform="translate(308.43 -1527.83)"/><path class="cls-2" d="M1001.12,1625.3a2.4,2.4,0,0,1-1,2.13,4.9,4.9,0,0,1-3.13.54l-2.25-.17q-6.67-.5-9.84-4t-3.17-10.59v-20.93H976.1a3.19,3.19,0,0,1-2.21-.71,2.39,2.39,0,0,1-.79-1.88,2.63,2.63,0,0,1,.79-2,3.08,3.08,0,0,1,2.21-.75h5.59v-9.42a3.24,3.24,0,0,1,.92-2.46,3.47,3.47,0,0,1,2.5-.87,3.36,3.36,0,0,1,2.42.88,3.24,3.24,0,0,1,.92,2.46v9.42h9.26a3,3,0,0,1,2.13.75,2.63,2.63,0,0,1,.79,2,2.39,2.39,0,0,1-.79,1.88,3.07,3.07,0,0,1-2.13.71h-9.26v21.26q0,4.59,1.88,6.63a8,8,0,0,0,5.63,2.29l2.25.17Q1001.12,1622.88,1001.12,1625.3Z" transform="translate(308.43 -1527.83)"/><path class="cls-2" d="M1098.22,1588.94a3,3,0,0,1-.75,2.13,4,4,0,0,1-2.58,1l-2.5.25q-5.59.5-8.3,4a12.8,12.8,0,0,0-2.71,8.13v20.26a3.21,3.21,0,0,1-.92,2.5,3.46,3.46,0,0,1-2.42.83,3.51,3.51,0,0,1-2.46-.88,3.16,3.16,0,0,1-1-2.46v-35.19a3.1,3.1,0,0,1,1-2.46,3.55,3.55,0,0,1,2.42-.87,3.07,3.07,0,0,1,3.17,3.25V1594a12.66,12.66,0,0,1,5-5.59,16.79,16.79,0,0,1,7.38-2.25l1.17-.08Q1098.22,1585.86,1098.22,1588.94Z" transform="translate(308.43 -1527.83)"/><path class="cls-3" d="M1055.21,1607a21.09,21.09,0,0,0-11.37-18.72,19.06,19.06,0,0,0-7.28-2.24l-.81-.07-.74,0c-.3,0-.6,0-.91,0s-.53,0-.8,0l-1,.05-.5,0a18.77,18.77,0,0,0-7.83,2.47l-.37.24a21.07,21.07,0,0,0-.58,36.18c.31.21.63.42,1,.61a19.55,19.55,0,0,0,10.13,2.58h.1c.72,0,1.41,0,2.1-.11h0a19,19,0,0,0,8-2.48l.21-.13A21.09,21.09,0,0,0,1055.21,1607Z" transform="translate(308.43 -1527.83)"/><circle class="cls-2" cx="1006.29" cy="6.53" r="4.53"/><path class="cls-4" d="M697.85,1529.83v-2a6.54,6.54,0,0,0-6.53,6.53h2A4.53,4.53,0,0,1,697.85,1529.83Z" transform="translate(308.43 -1527.83)"/><circle class="cls-2" cx="899.88" cy="79.35" r="4.53"/><circle class="cls-2" cx="899.88" cy="79.35" r="4.53"/><path class="cls-4" d="M586.74,1602.65h4.63a4.49,4.49,0,0,1,2,.4l.84-1.82A6.54,6.54,0,0,0,586.74,1602.65Z" transform="translate(308.43 -1527.83)"/><circle class="cls-2" cx="1023.77" cy="6.53" r="4.53"/><path class="cls-4" d="M719.87,1534.36h2a6.54,6.54,0,0,0-6.53-6.53v2A4.53,4.53,0,0,1,719.87,1534.36Z" transform="translate(308.43 -1527.83)"/><line class="cls-1" x1="1270.59" y1="1.01" x2="1290.08" y2="1.01"/><circle class="cls-2" cx="1270.59" cy="6.54" r="4.53"/><path class="cls-4" d="M962.16,1529.84v-2a6.54,6.54,0,0,0-6.53,6.53h2A4.53,4.53,0,0,1,962.16,1529.84Z" transform="translate(308.43 -1527.83)"/><circle class="cls-2" cx="1290.01" cy="6.53" r="4.53"/><path class="cls-4" d="M986.1,1534.36h2a6.54,6.54,0,0,0-6.53-6.53v2A4.53,4.53,0,0,1,986.1,1534.36Z" transform="translate(308.43 -1527.83)"/><circle class="cls-2" cx="1383.16" cy="6.55" r="4.53"/><path class="cls-4" d="M1079.26,1534.37h2a6.54,6.54,0,0,0-6.53-6.53v2A4.53,4.53,0,0,1,1079.26,1534.37Z" transform="translate(308.43 -1527.83)"/><circle class="cls-2" cx="1074.73" cy="1534.37" r="4.53" transform="translate(-450.25 391.16) rotate(-66.84)"/><path class="cls-4" d="M1076.51,1530.21l.79-1.84a6.54,6.54,0,0,0-8.57,3.44l1.84.79A4.53,4.53,0,0,1,1076.51,1530.21Z" transform="translate(308.43 -1527.83)"/><circle class="cls-2" cx="1163.15" cy="1607.11" r="4.53" transform="translate(-190.35 1162.65) rotate(-87.2)"/><path class="cls-4" d="M1157.56,1603.73h2.57a4.51,4.51,0,0,1,3.24-1.15l.1-2A6.54,6.54,0,0,0,1157.56,1603.73Z" transform="translate(308.43 -1527.83)"/><line class="cls-1" x1="1069.11" y1="1" x2="1120.98" y2="1"/><circle class="cls-2" cx="1069.11" cy="6.53" r="4.53"/><path class="cls-4" d="M760.67,1529.83v-2a6.54,6.54,0,0,0-6.53,6.53h2A4.53,4.53,0,0,1,760.67,1529.83Z" transform="translate(308.43 -1527.83)"/><line class="cls-1" x1="1160.23" y1="1" x2="1205.66" y2="1"/><circle class="cls-2" cx="1160.23" cy="6.53" r="4.53"/><path class="cls-4" d="M851.8,1529.83v-2a6.54,6.54,0,0,0-6.53,6.53h2A4.53,4.53,0,0,1,851.8,1529.83Z" transform="translate(308.43 -1527.83)"/><circle class="cls-2" cx="1120.81" cy="6.53" r="4.53"/><path class="cls-4" d="M816.9,1534.36h2a6.54,6.54,0,0,0-6.53-6.53v2A4.53,4.53,0,0,1,816.9,1534.36Z" transform="translate(308.43 -1527.83)"/><circle class="cls-2" cx="1205.66" cy="6.53" r="4.53"/><path class="cls-4" d="M901.76,1534.36h2a6.54,6.54,0,0,0-6.53-6.53v2A4.53,4.53,0,0,1,901.76,1534.36Z" transform="translate(308.43 -1527.83)"/><line class="cls-1" x1="1058.05" y1="157.95" x2="1034.66" y2="157.95"/><circle class="cls-2" cx="1058.05" cy="152.41" r="4.53"/><path class="cls-4" d="M749.61,1684.77v2a6.54,6.54,0,0,0,6.53-6.53h-2A4.53,4.53,0,0,1,749.61,1684.77Z" transform="translate(308.43 -1527.83)"/><circle class="cls-2" cx="1034.84" cy="152.41" r="4.53"/><path class="cls-4" d="M721.88,1680.24h-2a6.54,6.54,0,0,0,6.53,6.53v-2A4.53,4.53,0,0,1,721.88,1680.24Z" transform="translate(308.43 -1527.83)"/><line class="cls-1" x1="1149.19" y1="157.95" x2="1131.67" y2="157.95"/><circle class="cls-2" cx="1149.19" cy="152.41" r="4.53"/><path class="cls-4" d="M840.76,1684.77v2a6.54,6.54,0,0,0,6.53-6.53h-2A4.53,4.53,0,0,1,840.76,1684.77Z" transform="translate(308.43 -1527.83)"/><circle class="cls-2" cx="1131.84" cy="152.41" r="4.53"/><path class="cls-4" d="M818.88,1680.24h-2a6.54,6.54,0,0,0,6.53,6.53v-2A4.53,4.53,0,0,1,818.88,1680.24Z" transform="translate(308.43 -1527.83)"/><line class="cls-1" x1="1259.54" y1="157.95" x2="1216.57" y2="157.95"/><circle class="cls-2" cx="1259.54" cy="152.43" r="4.53"/><path class="cls-4" d="M951.11,1684.78v2a6.54,6.54,0,0,0,6.53-6.53h-2A4.53,4.53,0,0,1,951.11,1684.78Z" transform="translate(308.43 -1527.83)"/><circle class="cls-2" cx="1216.75" cy="152.41" r="4.53"/><path class="cls-4" d="M903.78,1680.24h-2a6.54,6.54,0,0,0,6.53,6.53v-2A4.53,4.53,0,0,1,903.78,1680.24Z" transform="translate(308.43 -1527.83)"/><circle class="cls-2" cx="1394.23" cy="152.41" r="4.53"/><path class="cls-4" d="M1081.27,1680.24h-2a6.54,6.54,0,0,0,6.53,6.53v-2A4.53,4.53,0,0,1,1081.27,1680.24Z" transform="translate(308.43 -1527.83)"/><circle class="cls-2" cx="1301.12" cy="152.41" r="4.53"/><path class="cls-4" d="M988.16,1680.24h-2a6.54,6.54,0,0,0,6.53,6.53v-2A4.53,4.53,0,0,1,988.16,1680.24Z" transform="translate(308.43 -1527.83)"/><circle class="cls-2" cx="992.69" cy="1680.24" r="4.53" transform="translate(-588.92 -333.76) rotate(-45)"/><path class="cls-4" d="M989.49,1683.44l-1.41,1.41a6.54,6.54,0,0,0,9.24,0l-1.41-1.41A4.53,4.53,0,0,1,989.49,1683.44Z" transform="translate(308.43 -1527.83)"/><line class="cls-1" x1="1398.07" y1="156.36" x2="1467.94" y2="75.18"/><circle class="cls-2" cx="1394.23" cy="152.41" r="4.53"/><path class="cls-4" d="M1081.27,1680.24h-2a6.54,6.54,0,0,0,6.53,6.53v-2A4.53,4.53,0,0,1,1081.27,1680.24Z" transform="translate(308.43 -1527.83)"/><circle class="cls-2" cx="1085.8" cy="1680.24" r="4.53" transform="translate(-561.65 -267.92) rotate(-45)"/><path class="cls-4" d="M1082.59,1683.44l-1.41,1.41a6.54,6.54,0,0,0,9.24,0l-1.41-1.41A4.53,4.53,0,0,1,1082.59,1683.44Z" transform="translate(308.43 -1527.83)"/></svg>